<?xml version="1.0" standalone="no"?>
<!DOCTYPE svg PUBLIC "-//W3C//DTD SVG 1.1//EN" "http://www.w3.org/Graphics/SVG/1.1/DTD/svg11.dtd" >
<!--
2013-9-30: Created.
-->
<svg>
<metadata>
Created by iconfont
</metadata>
<defs>

<font id="iconfont" horiz-adv-x="1024" >
  <font-face
    font-family="iconfont"
    font-weight="500"
    font-stretch="normal"
    units-per-em="1024"
    ascent="896"
    descent="-128"
  />
    <missing-glyph />
    
    <glyph glyph-name="x" unicode="x" horiz-adv-x="1001"
d="M281 543q-27 -1 -53 -1h-83q-18 0 -36.5 -6t-32.5 -18.5t-23 -32t-9 -45.5v-76h912v41q0 16 -0.5 30t-0.5 18q0 13 -5 29t-17 29.5t-31.5 22.5t-49.5 9h-133v-97h-438v97zM955 310v-52q0 -23 0.5 -52t0.5 -58t-10.5 -47.5t-26 -30t-33 -16t-31.5 -4.5q-14 -1 -29.5 -0.5
t-29.5 0.5h-32l-45 128h-439l-44 -128h-29h-34q-20 0 -45 1q-25 0 -41 9.5t-25.5 23t-13.5 29.5t-4 30v167h911zM163 247q-12 0 -21 -8.5t-9 -21.5t9 -21.5t21 -8.5q13 0 22 8.5t9 21.5t-9 21.5t-22 8.5zM316 123q-8 -26 -14 -48q-5 -19 -10.5 -37t-7.5 -25t-3 -15t1 -14.5
t9.5 -10.5t21.5 -4h37h67h81h80h64h36q23 0 34 12t2 38q-5 13 -9.5 30.5t-9.5 34.5q-5 19 -11 39h-368zM336 498v228q0 11 2.5 23t10 21.5t20.5 15.5t34 6h188q31 0 51.5 -14.5t20.5 -52.5v-227h-327z" />
    

    
    <glyph glyph-name="icon11" unicode="&#58973;" d="M510.74077 805.205247c-235.906304 0-427.141415-191.619202-427.141415-428.01419 0-73.559343 18.520554-142.780891 51.137729-203.243961l3.565345 3.550873c4.334903-8.479115 13.413024-14.312984 23.933043-14.312984 14.681976 0 26.594771 11.441587 26.594771 25.574469l-0.208763 2.378164c0 10.577916-6.697813 19.656689-16.262025 23.538089-23.723256 49.158606-37.032922 104.282065-37.032922 162.515351 0 206.849068 167.722665 374.512672 374.579185 374.512672 206.806376 0 374.47685-167.663604 374.47685-374.512672 0-206.822462-167.670474-374.511649-374.47685-374.511649-83.536931 0-160.677936 27.365254-222.981417 73.595158-1.015161 0.887206-2.105027 1.696642-3.254247 2.426259-0.137129 0.104377-0.276304 0.203638-0.412409 0.308015l-0.03377-0.032746c-4.117953 2.501984-8.999323 3.956102-14.241936 3.956102-14.681976 0-26.594771-11.44261-26.594771-25.574469l0.209786-2.351558c0-4.702092 1.324212-9.103332 3.626746-12.886495l-0.565912-0.563842c0.665176-0.528026 1.343656-1.040702 2.011902-1.563612 2.860258-3.78214 6.772518-6.783497 11.329487-8.602935 70.595671-51.692313 157.607892-82.211397 251.741593-82.211397 235.90835 0 427.143462 191.618179 427.143462 428.01419C937.885255 613.586045 746.650144 805.205247 510.74077 805.205247zM618.220977 366.897619c14.104807 13.244652 14.104807 34.718733 0 47.936779L503.635664 522.701105c-14.107877 13.244652-36.88863 13.244652-50.943293 0L452.692371 259.03296c14.054663-13.219069 36.836439-13.219069 50.943293 0L618.220977 366.897619z"  horiz-adv-x="1024" />

    
    <glyph glyph-name="tuijianliebiao" unicode="&#58940;" d="M245.750857 416.036571 347.428571 489.786514 449.142857 416.036571 410.322286 535.427657 512 609.250743 386.249143 609.250743 347.428571 728.643657 308.608 609.250743 182.857143 609.250743 284.571429 535.427657ZM658.285714 548.571429c0 171.679086-139.178057 310.857143-310.857143 310.857143C175.714743 859.428571 36.571429 720.250514 36.571429 548.571429c0-94.928457 42.642286-179.785143 109.714286-236.785371L146.285714-91.428571l201.142857 109.714286 201.142857-109.714286L548.571429 311.786057C615.643429 368.786286 658.285714 453.642971 658.285714 548.571429zM109.714286 548.571429c0 131.072 106.642286 237.714286 237.714286 237.714286s237.714286-106.642286 237.714286-237.714286-106.642286-237.714286-237.714286-237.714286S109.714286 417.499429 109.714286 548.571429zM475.428571 31.786057l-92.964571 50.7136L347.428571 101.6064l-35.035429-19.106743L219.428571 31.786057 219.428571 265.499429C258.499657 247.8208 301.750857 237.714286 347.428571 237.714286s88.928914 10.106514 128 27.785143L475.428571 31.786057zM731.428571 640l292.571429 0 0-73.142857-292.571429 0 0 73.142857ZM731.428571 420.571429l292.571429 0 0-73.142857-292.571429 0 0 73.142857ZM621.714286 201.142857l402.285714 0 0-73.142857-402.285714 0 0 73.142857Z"  horiz-adv-x="1024" />

    
    <glyph glyph-name="icon03" unicode="&#58882;" d="M66.519508 623.988975l890.958938 0 0-647.978974c-296.933783 0-594.026178 0-890.958938 0L66.519508 623.988975zM138.767995 580.738939c111.124913-109.019972 220.793662-219.836871 332.891739-327.884702 21.221324-24.931832 60.106959-24.77322 81.162508 0.331551 112.096031 108.048855 221.60719 218.533179 332.732104 327.553151C636.571668 580.738939 387.751696 580.738939 138.767995 580.738939zM109.446179 552.714675c-0.158612-168.637792 0-337.099574 0-505.735319 85.370343 84.222193 170.740686 168.461783 255.95344 252.859985C280.186865 384.252893 194.816522 468.475086 109.446179 552.714675zM658.76411 299.839341c85.205591-84.22424 170.418344-168.479179 255.786641-252.704442 0.158612 168.480202 0 336.941985 0 505.412978C829.182454 468.475086 743.968677 384.076884 658.76411 299.839341zM137.96163 18.138494c249.466702 0 498.93545 0 748.401128 0-85.37239 84.399225-170.898275 168.796404-256.269641 253.035994-34.346249-29.963429-63.99143-71.442122-110.318548-82.944084-54.594409-1.470491-87.641059 51.684126-125.70191 82.944084C308.702316 186.934898 223.331973 102.536696 137.96163 18.138494z"  horiz-adv-x="1024" />

    
    <glyph glyph-name="tuichu1" unicode="&#59211;" d="M496.32-127.392c-55.488 0-109.376 10.848-160.064 32.352-48.992 20.672-92.928 50.304-130.688 88.064-37.76 37.76-67.392 81.76-88.128 130.72C96 174.432 85.12 228.288 85.12 283.808c0 66.432 16.288 132.384 47.072 190.816 29.76 56.448 72.992 106.016 125.056 143.328 14.464 10.368 34.56 7.008 44.896-7.424 10.336-14.432 7.04-34.496-7.424-44.8C250.72 534.112 214.208 492.32 189.12 444.672c-26.336-49.952-39.68-104.064-39.68-160.864 0-92.672 36.096-179.808 101.632-245.312 65.504-65.536 152.608-101.632 245.248-101.632 92.608 0 179.744 36.096 245.28 101.632 65.536 65.504 101.6 152.64 101.6 245.312 0 56.736-13.312 110.944-39.68 160.864-25.088 47.616-61.632 89.44-105.632 120.992-14.432 10.304-17.792 30.368-7.424 44.8 10.368 14.432 30.432 17.824 44.864 7.424 52.096-37.312 95.392-86.88 125.12-143.328 30.816-58.432 47.104-124.384 47.104-190.816 0-55.52-10.88-109.376-32.352-160.096-20.704-48.96-50.368-92.96-88.128-130.72-37.76-37.76-81.696-67.36-130.688-88.128C605.664-116.576 551.808-127.392 496.32-127.392L496.32-127.392zM505.984 318.816c-17.76 0-32.16 14.336-32.16 32.128L473.824 731.808c0 17.728 14.4 32.16 32.16 32.16s32.192-14.432 32.192-32.16l0-380.864C538.176 333.152 523.744 318.816 505.984 318.816L505.984 318.816zM505.984 318.816"  horiz-adv-x="1024" />

    
    <glyph glyph-name="bianji" unicode="&#58990;" d="M1008.718575 412.190228l-58.325913-57.043429-159.73244 158.449956 58.325913 57.043429c17.738014 17.738014 45.627518 20.284918 60.836691 5.075745l105.217851-102.68901C1029.003493 457.835809 1026.456588 429.946304 1008.718575 412.190228L1008.718575 412.190228 1008.718575 412.190228 1008.718575 412.190228zM762.788781 486.989734l160.99686-157.185535L540.937167-47.968531c-1.264421-1.264421-6.358229-6.340166-13.944752-7.604586-1.264421 0-1.264421 0-2.546904-1.264421L324.161298-118.974775c-5.075745-1.264421-11.415911-1.264421-15.227236 2.546904-3.793262 3.793262-5.057682 8.869007-2.546904 15.227236l63.401658 196.490951c0 1.246357 0 1.246357 1.264421 2.528841 1.264421 6.358229 6.340166 13.944752 8.850944 15.227236l73.535086 67.176857L210.07444 180.223249c-10.151491 0-19.020497 11.433974-19.020497 20.284918 0 10.169554 8.869007 21.549339 19.020497 21.549339l281.423884 0L762.788781 486.989734 762.788781 486.989734 762.788781 486.989734zM491.498324-35.288199l-98.895749 97.595202-26.625084-82.404092 41.834256-41.834256L491.498324-35.288199 491.498324-35.288199 491.498324-35.288199zM757.713036 424.870559c-5.075745 5.057682-15.227236 5.057682-20.284918 0L436.965673 130.766343c-6.340166-5.057682-6.340166-15.209173 0-20.284918 5.075745-5.057682 15.227236-5.057682 20.284918 0l299.179961 294.104216C762.788781 409.661386 762.788781 418.530393 757.713036 424.870559L757.713036 424.870559 757.713036 424.870559 757.713036 424.870559zM89.629353-149.39312c-10.133427 0-20.266855 3.811325-20.266855 13.944752L69.362498 665.724608C68.098077 684.745105 80.778409 680.93378 94.705098 680.93378l69.723761 0 0-26.625084c0-10.151491 11.397848-19.020497 22.813759-19.020497 10.151491 0 22.831822 8.869007 22.831822 19.020497L210.07444 680.93378l103.953431 0 0-26.625084c0-10.151491 11.397848-19.020497 22.813759-19.020497 10.151491 0 22.831822 8.869007 22.831822 19.020497L359.673452 680.93378l95.084424 0 0-26.625084c0-10.151491 11.397848-19.020497 22.813759-19.020497 10.169554 0 22.831822 8.869007 22.831822 19.020497L500.403457 680.93378l95.084424 0 0-26.625084c0-10.151491 11.415911-19.020497 22.831822-19.020497 10.133427 0 22.813759 8.869007 22.813759 19.020497L641.133463 680.93378l79.857188 0c10.151491 0 16.491656-5.057682 16.491656-15.209173l0-131.842935 58.325913 57.043429L795.80822 665.724608c0 41.834256-31.700829 72.252602-74.817569 72.252602l-81.121609 0L639.869042 787.434115c0 10.151491-11.415911 19.020497-22.831822 19.020497-10.133427 0-22.813759-8.869007-22.813759-19.020497l0-49.438843-95.084424 0L499.139037 787.434115c0 10.151491-11.397848 19.020497-22.831822 19.020497-10.151491 0-22.813759-8.869007-22.813759-19.020497l0-49.438843-95.084424 0L358.409032 787.434115c0 10.151491-11.415911 19.020497-22.831822 19.020497-10.151491 0-22.813759-8.869007-22.813759-19.020497l0-49.438843L208.810019 737.995273 208.810019 787.434115c0 10.151491-11.415911 19.020497-22.831822 19.020497-10.151491 0-22.813759-8.869007-22.813759-19.020497l0-49.438843-68.45934 0c-57.043429 0-84.932933-30.418345-84.932933-72.252602l0-799.908555c0-41.816193 38.022932-72.252602 81.139672-72.252602l628.778268 0c43.098677 0 74.799506 30.436409 74.799506 72.252602l0 276.366202-58.325913-57.043429 0-220.56913c0-10.151491-6.340166-13.944752-16.473593-13.944752M587.829106 521.201341 208.810019 521.201341c-10.151491 0-17.738014-12.662268-17.738014-21.531275 0-10.151491 7.604586-21.549339 17.738014-21.549339l379.019086 0c10.169554 0 17.756077 12.680332 17.756077 21.549339S597.980596 521.201341 587.829106 521.201341L587.829106 521.201341 587.829106 521.201341 587.829106 521.201341zM587.829106 375.431716 208.810019 375.431716c-10.151491 0-17.738014-12.662268-17.738014-21.549339 0-10.151491 7.604586-21.531275 17.738014-21.531275l379.019086 0c10.169554 0 17.756077 12.680332 17.756077 21.531275C605.585183 362.769448 597.980596 375.431716 587.829106 375.431716L587.829106 375.431716 587.829106 375.431716 587.829106 375.431716zM587.829106 375.431716"  horiz-adv-x="1024" />

    
    <glyph glyph-name="youjian" unicode="&#58884;" d="M850.91799 575.15578 175.128623 575.15578c-37.436634 0-67.914786-30.450523-67.914786-67.971068l0-414.425707c0-37.519522 30.478152-67.913762 67.914786-67.913762l675.789367 0c37.608549 0 67.913762 30.394241 67.913762 67.913762L918.831752 507.184713C918.80003 544.704235 888.49584 575.15578 850.91799 575.15578L850.91799 575.15578 850.91799 575.15578zM816.788681 517.096457 562.492998 291.599679c-22.192442-19.819394-38.647205-29.580712-49.222051-29.580712-10.574846 0-27.034726 9.792017-49.196469 29.580712L209.749118 517.096457 816.788681 517.096457 816.788681 517.096457 816.788681 517.096457zM166.374238 114.863443 166.374238 474.009126l201.886033-177.080068L166.374238 114.863443 166.374238 114.863443 166.374238 114.863443zM215.950354 83.630091l196.377576 174.387749 32.188096-28.245298c18.687618-16.313547 41.693588-24.717961 68.781526-24.717961 27.237341 0 50.092885 8.372691 68.868507 24.717961l32.18912 28.245298 196.349947-174.387749L215.950354 83.630091 215.950354 83.630091 215.950354 83.630091zM860.219843 114.863443l-201.911616 182.03594 201.911616 177.084161L860.219843 114.863443 860.219843 114.863443 860.219843 114.863443zM860.219843 114.863443"  horiz-adv-x="1024" />

    
    <glyph glyph-name="zhenguan" unicode="&#58941;" d="M217.101 72.605c-18.627-18.245-43.192-43.271-42.413-47.589 0.42-2.393 7.076-10.413 15.82-19.868L69.45-129.632l5.876-5.981L214.57-19.24c10.055-9.544 18.737-16.901 21.255-17.148 4.316-0.378 28.964 23.845 47.026 42.261 50.743-23.495 107.3-15.854 107.3-15.854L202.888 180.191C202.888 180.191 194.356 123.728 217.101 72.605zM914.792 506.31l39.758 39.134L767.237 735.614l-39.731-39.126 60.097-61.023-60.6-59.681-92.231 93.657-28.303-27.838 32.172-32.664-427.74-421.171 187.312-190.175 427.678 421.182 32.138-32.63 28.297 27.851-92.227 93.656 60.611 59.667L914.792 506.31zM790.553 423.757l0-0.006L532.36 165.526 790.553 423.757l-258.199-258.22-6.068 6.068-6.11 6.11-6.083 6.083-6.096 6.097-6.083 6.079-6.097 6.099-6.083 6.079-6.083 6.087-6.104 6.099-6.062 6.066-6.103 6.104-6.09 6.089-6.083 6.082-6.104 6.104-6.062 6.065-6.11 6.104-6.076 6.079-6.089 6.09-6.097 6.096-6.062 6.065-6.111 6.107-6.089 6.089-6.083 6.083-6.083 6.086-6.089 6.083 0 0.007 40.067 40.061 52.696 52.695 82.515-82.528 15.062 15.055-82.529 82.519 32.592 32.592 76.101-76.098 15.027 15.037-76.095 76.094 30.083 30.079 66.942-66.957 15.061 15.041-66.963 66.957 57.66 57.657 6.068-6.068 6.09-6.09 6.097-6.096 6.09-6.09 6.096-6.096 6.069-6.065 6.104-6.104 6.075-6.079 6.097-6.093 6.104-6.1 6.055-6.058 6.104-6.097 6.09-6.092 6.082-6.079 6.104-6.107 6.062-6.063 6.109-6.11 6.09-6.086 6.068-6.072 6.117-6.114 6.063-6.058 6.097-6.097 6.088-6.089 6.09-6.086 6.068-6.072L790.55 423.757z"  horiz-adv-x="1024" />

    
    <glyph glyph-name="xinzeng" unicode="&#58939;" d="M511.999998 812c-282.757922 0-511.978511-229.220588-511.978511-511.978511s229.220588-511.978511 511.978511-511.978511 511.978511 229.220588 511.978511 511.978511S794.75792 812 511.999998 812zM532.03224 468.919201l48.417733-48.644907L352.748994 193.6396l-48.416709 48.643883L532.03224 468.919201zM239.692079 18.461859c-13.444197-5.711072-20.193925 0.466628-14.56881 14.119579l0.00307-0.001023 48.28982 128.72578 93.984534-94.625124L239.692079 18.461859zM449.850519 96.736597l-48.437176 48.635697 227.65493 226.710418 48.433082-48.634674L449.850519 96.736597zM705.802936 353.232388l-144.43967 146.177244 32.833803 32.512485L739.522921 386.281085 705.802936 353.232388zM790.36589 436.915299l-20.831444-20.433378L624.207569 562.122953l20.834514 20.432355c15.004739 15.09786 39.796378 15.000646 54.898331-0.005117l90.429569-90.736561C805.468866 476.808892 805.370629 452.013159 790.36589 436.915299z"  horiz-adv-x="1024" />

    
    <glyph glyph-name="shixinyuan" unicode="&#58992;" d="M512 812c282.748 0 512-229.249 512-512.006C1024 17.249 794.748-212 512-212S0 17.249 0 299.994C0 582.751 229.252 812 512 812z"  horiz-adv-x="1024" />

    
    <glyph glyph-name="zuoye1" unicode="&#58891;" d="M369.359302 636.018827l450.448132 0 0-51.323922L369.359302 584.694905 369.359302 636.018827 369.359302 636.018827 369.359302 636.018827zM369.359302 434.512441l450.448132 0 0-51.323922L369.359302 383.188518 369.359302 434.512441 369.359302 434.512441 369.359302 434.512441zM369.107569 233.006054l219.201397 0 0-51.322899L369.107569 181.683155 369.107569 233.006054 369.107569 233.006054 369.107569 233.006054zM190.126198 648.850064l78.902024 0 0-76.985372-78.902024 0L190.126198 648.850064 190.126198 648.850064 190.126198 648.850064zM190.126198 447.343677l78.902024 0 0-76.985372-78.902024 0L190.126198 447.343677 190.126198 447.343677 190.126198 447.343677zM189.874465 245.83729l78.906118 0 0-77.016071-78.906118 0L189.874465 245.83729 189.874465 245.83729 189.874465 245.83729zM521.673313-5.487735 130.362047-5.487735c-12.862959 0-16.721847 10.1645-16.721847 22.744004L113.6402 758.026602c0 12.547781 3.858888 22.745027 16.721847 22.745027l760.660336 0c12.861936 0 16.720823-10.165524 16.720823-22.745027l0-428.609755 0.031722 0c0-0.12689-0.031722-0.251733-0.031722-0.409322 0-13.805424 11.484565-25.00244 25.600051-25.00244 14.150278 0 25.603121 11.197016 25.603121 25.00244 0 0.124843-0.031722 0.251733-0.031722 0.409322l0.031722 0L958.946378 805.808862c0 14.176884-11.766998 25.66145-26.28976 25.66145L88.701205 831.470311c-14.527878 0-26.28976-11.484565-26.28976-25.66145l0-836.33076c0-14.180977 11.761881-25.660426 26.28976-25.660426l432.972109 0c14.370289 0 26.007327 11.353582 26.007327 25.347295C547.680641-16.810618 536.043602-5.487735 521.673313-5.487735L521.673313-5.487735 521.673313-5.487735zM996.181421 183.092247c4.550643 4.644787 7.404644 10.887978 7.404644 17.821901 0 14.182001-11.762905 25.66145-26.28976 25.66145-7.089465 0-13.520945-2.76088-18.255783-7.248078l0 0-0.094144-0.094144-0.470721-0.470721L769.359462 34.229848l-75.890434 74.072019c-4.770653 4.672416-11.357675 7.593955-18.665105 7.593955-14.526855 0-26.288736-11.484565-26.288736-25.666566 0-7.091512 2.948145-13.490246 7.682983-18.130939l0 0 75.984578-74.136487-0.534166-0.502443 37.20946-36.298717 0.533143 0.503467 0.534166-0.503467 37.20946 36.298717-0.534166 0.502443L996.181421 183.092247 996.181421 183.092247 996.181421 183.092247zM996.181421 183.092247"  horiz-adv-x="1024" />

    
    <glyph glyph-name="xiangxia" unicode="&#59420;" d="M777.045333 550.357333 512 284.352 246.976 550.357333c-12.565333 12.629333-32.981333 12.629333-45.546667 0s-12.565333-33.130667 0-45.76L487.616 217.386667c6.698667-6.741333 15.594667-9.6 24.384-9.173333 8.789333-0.448 17.664 2.410667 24.384 9.173333l286.208 287.210667c12.544 12.629333 12.544 33.130667 0 45.76C810.005333 562.986667 789.632 562.986667 777.045333 550.357333z"  horiz-adv-x="1024" />

    
    <glyph glyph-name="rili" unicode="&#59101;" d="M672 448l64 0C753.664 448 768 462.336 768 480l0 64C768 561.664 753.664 576 736 576l-64 0C654.336 576 640 561.664 640 544l0-64C640 462.336 654.336 448 672 448zM672 256l64 0c17.664 0 32 14.336 32 32l0 64C768 369.664 753.664 384 736 384l-64 0C654.336 384 640 369.664 640 352l0-64C640 270.336 654.336 256 672 256zM480 448l64 0C561.664 448 576 462.336 576 480l0 64C576 561.664 561.664 576 544 576l-64 0C462.336 576 448 561.664 448 544l0-64C448 462.336 462.336 448 480 448zM896 896 128 896C57.28 896 0 838.72 0 768l0-768c0-70.72 57.28-128 128-128l768 0c70.72 0 128 57.28 128 128L1024 768C1024 838.72 966.656 896 896 896zM640 768l128 0 0-64-128 0L640 768zM256 768l128 0 0-64L256 704 256 768zM896 64c0-35.328-28.672-64-64-64L192 0c-35.328 0-64 28.672-64 64L128 640l768 0L896 64zM288 64l64 0C369.664 64 384 78.336 384 96l0 64C384 177.664 369.664 192 352 192l-64 0C270.336 192 256 177.664 256 160l0-64C256 78.336 270.336 64 288 64zM288 448l64 0C369.664 448 384 462.336 384 480l0 64C384 561.664 369.664 576 352 576l-64 0C270.336 576 256 561.664 256 544l0-64C256 462.336 270.336 448 288 448zM288 256l64 0C369.664 256 384 270.336 384 288l0 64C384 369.664 369.664 384 352 384l-64 0C270.336 384 256 369.664 256 352l0-64C256 270.336 270.336 256 288 256zM480 64l64 0C561.664 64 576 78.336 576 96l0 64C576 177.664 561.664 192 544 192l-64 0C462.336 192 448 177.664 448 160l0-64C448 78.336 462.336 64 480 64zM480 256l64 0C561.664 256 576 270.336 576 288l0 64C576 369.664 561.664 384 544 384l-64 0C462.336 384 448 369.664 448 352l0-64C448 270.336 462.336 256 480 256zM672 64l64 0c17.664 0 32 14.336 32 32l0 64c0 17.664-14.336 32-32 32l-64 0c-17.664 0-32-14.336-32-32l0-64C640 78.336 654.336 64 672 64z"  horiz-adv-x="1024" />

    
    <glyph glyph-name="yonghuming" unicode="&#58881;" d="M506.484 355.928c-124.044 0-224.628 100.585-224.628 224.628 0 124.090 100.585 224.675 224.628 224.675 124.090 0 224.628-100.585 224.628-224.675 0-124.044-100.538-224.628-224.628-224.628M660.131 314.875c91.601 53.108 153.228 152.204 153.228 265.681 0 169.472-137.402 306.874-306.874 306.874-169.472 0-306.874-137.402-306.874-306.874 0-115.34 63.628-215.785 157.743-268.195-154.81-61.533-264.285-212.713-264.285-389.446 0-22.993 18.665-41.658 41.705-41.658 22.993 0 41.658 18.665 41.658 41.658v0c0.233 185.297 150.481 335.407 335.872 335.407 183.249 0 332.241-146.804 335.732-329.216-0.279-2.001-0.465-4.096-0.465-6.191 0-22.993 18.665-41.658 41.705-41.658 22.993 0 41.658 18.665 41.658 41.658 0 179.2-112.547 332.148-270.801 391.959z"  horiz-adv-x="1024" />

    
    <glyph glyph-name="shixinyuan2" unicode="&#59234;" d="M512 384m-448.323748 0a438.113 438.113 0 1 0 896.647497 0 438.113 438.113 0 1 0-896.647497 0Z"  horiz-adv-x="1024" />

    
    <glyph glyph-name="weiwanchengshalou" unicode="&#58974;" d="M668.279808 155.799552c-71.199744 107.794432-136.315904 205.16864-136.315904 205.16864l0 47.0016c115.802112 152.056832 148.056064 209.2544 148.056064 209.2544l0 0-11.74016 0L345.189376 617.224192l0 0c0 0 78.331904-123.242496 147.87072-209.2544l0-47.0016c0 0-49.57184-72.800256-136.351744-205.16864M668.279808 617.224192M780.57984 665.824256l0 47.143936 71.236608 0L851.816448 784.60928 178.981888 784.60928l0-71.641088 65.426432 0 0-47.143936c0-71.940096 178.82624-268.404736 184.865792-282.615808-5.932032-14.104576-184.865792-210.640896-184.865792-282.29632l0-47.072256-65.426432 0 0-68.030464 672.835584 0 0 68.030464-71.236608 0 0 47.072256c0 71.940096-176.036864 267.195392-182.929408 282.471424C604.541952 398.66368 780.57984 593.915904 780.57984 665.824256L780.57984 665.824256zM735.924224 100.912128l0-47.072256L289.099776 53.839872l0 47.072256c0 51.69152 186.642432 256.575488 186.642432 282.471424 0 25.900032-186.642432 230.74816-186.642432 282.440704l0 47.143936 446.860288 0 0-47.143936c0-51.692544-184.956928-256.540672-184.956928-282.440704C550.966272 357.487616 735.924224 152.603648 735.924224 100.912128L735.924224 100.912128zM735.924224 100.912128"  horiz-adv-x="1024" />

    
    <glyph glyph-name="site" unicode="&#59026;" d="M511.343549 830.928982c-165.401074 0-299.422464-134.020366-299.422464-299.422464 0-165.403121 299.422464-596.543511 299.422464-596.543511s299.423487 431.140391 299.423487 596.543511C810.767036 696.909639 676.74667 830.928982 511.343549 830.928982zM511.343549 387.338025c-91.984994 0-166.625972 74.638931-166.625972 166.625972 0 92.057649 74.639954 166.625972 166.625972 166.625972 92.058672 0 166.625972-74.568323 166.625972-166.625972C677.969521 461.976956 603.402221 387.338025 511.343549 387.338025z"  horiz-adv-x="1024" />

    
    <glyph glyph-name="tuijian" unicode="&#58894;" d="M990.391555 86.783785c0 0-94.5187-18.961864-190.429097-38.70144-63.919798-71.181179-127.5807-142.198629-127.5807-142.198629L535.336498 139.715321c-7.746428-0.48607-15.461133-1.167592-23.337521-1.167592-7.875365 0-15.59007 0.681522-23.337521 1.167592L351.618243-94.115262c0 0-63.660902 71.018473-127.5807 142.198629-95.91142 19.739577-190.43012 38.70144-190.43012 38.70144l149.037385 254.317173c-24.019043 48.101531-37.859259 102.005208-37.859259 159.215188 0.064468 199.829188 164.465772 361.80014 367.245152 361.80014s367.180683-161.969928 367.180683-361.768417c0-57.20998-13.840216-111.112634-37.859259-159.215188L990.391555 86.783785 990.391555 86.783785zM679.512155 14.372591c0 0 45.898353 43.530422 89.039919 85.47472 61.196781 17.405415 122.945123 35.136242 122.945123 35.136242l-86.608543 147.805324c-49.949622-65.182558-121.648594-113.026216-204.593701-133.219117L679.512155 14.372591 679.512155 14.372591zM132.567271 134.98253c0 0 61.747319-17.729803 122.945123-35.136242 43.141566-41.944298 89.039919-85.47472 89.039919-85.47472l79.218226 135.164423c-82.946131 20.192901-154.612357 68.035536-204.593701 133.220141L132.567271 134.98253 132.567271 134.98253zM512.031722 802.73485c-164.887374 0-298.529117-133.932362-298.529117-299.112402 0-165.211762 133.641743-299.112402 298.529117-299.112402 164.855652 0 298.529117 133.932362 298.529117 299.112402C810.56084 668.83421 676.919097 802.73485 512.031722 802.73485L512.031722 802.73485zM327.260485 584.049199l109.325941 0c3.197832 5.995551 6.327102 12.123109 9.393951 18.387789l31.578206 0c-3.066849-6.264681-6.129604-12.391215-9.193383-18.387789L702.20704 584.049199l0-27.981285L453.575356 556.067914c-9.993608-17.856693-20.386306-34.645055-31.179117-50.366108l0-198.665689-30.379914 0L392.016325 465.129762c-18.387789-22.25384-37.708833-41.906435-57.961086-58.959833-7.194866 10.658757-13.459546 19.587104-18.786878 26.78197 40.772612 32.908504 75.948763 73.950246 105.528452 123.117039l-93.536326 0L327.260485 584.049199zM326.461283 660.797164l105.528452 0 0 35.576263 30.379914 0 0-35.576263 111.124913 0 0 35.975353 30.379914 0 0-35.975353 103.930047 0 0-27.981285L603.873454 632.815879l0-29.1806-30.379914 0 0 29.1806L462.368626 632.815879l0-24.783453-30.379914 0 0 24.783453L326.461283 632.815879 326.461283 660.797164zM451.975928 436.148707l120.31932 0 0 19.587104 58.360176 37.57478L473.561549 493.310591l0 27.182083 206.66078 0 0-27.182083-77.547167-49.166793 0-7.995091 105.128339 0 0-27.981285L602.674139 408.167422l0-53.16485c0-31.444153-14.523785-47.168276-43.570331-47.168276-16.788361 0-39.97341 0.135076-69.553099 0.400113-1.333368 10.127661-3.066849 20.920472-5.196349 32.378431 24.515347-2.1295 46.90017-3.197832 67.154469-3.197832 13.856589 0 20.786419 7.463995 20.786419 22.384823l0 48.367591L451.975928 408.167422 451.975928 436.148707z"  horiz-adv-x="1024" />

    
    <glyph glyph-name="shiyan-copy" unicode="&#58957;" d="M699.164 262.952c-19.692-11.84-34.716-28.41-44.781-47.309l-115.614 22.699c-0.189 33.881-9.189 68.138-27.951 99.283-20.297 33.641-49.136 58.898-82.024 74.757l52.101 147.663c14.575 0.548 29.213 4.641 42.589 12.707 42.11 25.388 55.661 80.087 30.289 122.185-25.383 42.088-80.093 55.645-122.17 30.242-22.94-13.787-37.338-36.345-41.64-60.799l-111.354-6.817c-4.782 10.238-12.143 19.451-21.937 26.558-30.843 22.395-74.028 15.552-96.402-15.296-22.385-30.879-15.546-74.020 15.307-96.433 30.863-22.387 73.996-15.494 96.391 15.353 7.747 10.609 11.892 22.724 12.885 34.925l105.966 6.49c2.047-8.992 5.492-17.808 10.503-26.113 8.75-14.55 21.029-25.555 35.019-32.858l-50.431-142.943c-47.047 10.378-98.010 3.493-142.541-23.33-92.161-55.552-121.824-175.316-66.269-267.468 55.537-92.132 175.284-121.806 267.447-66.269 45.219 27.261 75.364 70.018 87.787 117.388l107.814-21.185c-1.723-24.349 3.697-49.448 17.237-71.918 35.031-58.114 110.456-76.793 168.53-41.763 58.063 34.997 76.762 110.425 41.765 168.497-35.009 58.084-110.445 76.743-168.518 41.754z"  horiz-adv-x="1024" />

    
    <glyph glyph-name="zhuye" unicode="&#58934;" d="M1011.712 369.46c-12.493-11.88-13.312-10.855-50.995-10.855H886.17v-355.533c0-54.272-31.54-86.016-88.884-86.016H693.043l-40.345 0.614v307.2c0 36.864-20.89 46.285-45.056 46.285H422.707c-27.033 0-48.333-10.24-48.333-44.441V-82.74l-53.657-0.205h-90.931c-54.682 0-88.884 28.262-88.884 91.136V358.4h-76.8c-40.55 0-42.803 5.734-52.428 16.384-19.047 21.3-18.023 47.718 30.515 84.173L468.787 821.043c12.493 8.807 25.395 25.805 41.37 25.805h6.758c16.18 0 28.877-13.517 41.575-22.323l422.502-365.363c40.755-24.781 55.91-65.536 30.72-89.703z"  horiz-adv-x="1025" />

    
    <glyph glyph-name="xiao47" unicode="&#58905;" d="M379.889 146.023l-107.986 106.213-67.924-181.142zM726.513 485.694l-111.48 114.922-323.124-318.78 115.86-120.153zM818.336 573.502c15.139 17.016 0 49.674 0 49.674s-29.512 32.66-63.458 57.478c-33.981 24.802-60.121 0-60.121 0l-57.46-57.478 116.711-116.276c0 0 49.205 49.621 64.326 66.603z"  horiz-adv-x="1024" />

    
    <glyph glyph-name="tongbubofang" unicode="&#59019;" d="M1092.775 145.835h-243.654c57.358 63.54 92.606 147.646 92.606 239.945 0 90.751-34.013 173.619-89.516 236.698h240.561v-127.083l254.323 127.235-254.321 158.778v-127.083h-272.411c-62.926 55.348-145.791 89.205-236.388 89.205-197.583 0-357.906-160.169-357.906-357.906s160.169-357.906 357.906-357.906c88.896 0 169.909 32.311 232.523 85.959h276.275v-127.083l254.167 127.085-254.167 159.088v-126.934zM627.574 302.912l-143.628-82.869v331.625l287.251-165.737-143.628-83.019z"  horiz-adv-x="1448" />

    
    <glyph glyph-name="taolun" unicode="&#58912;" d="M512 896C230.4 896 0 665.6 0 384s230.4-512 512-512 512 230.4 512 512S793.6 896 512 896z m233.244444-668.444444c-34.133333-31.288889-233.244444-170.666667-233.244444-170.666667v82.488889c-179.2 0-327.111111 128-327.111111 284.444444s147.911111 284.444444 327.111111 284.444445 327.111111-128 327.111111-281.6c0-76.8-36.977778-147.911111-93.866667-199.111111zM512 662.755556c-153.6 0-275.911111-105.244444-275.911111-236.088889 0-130.844444 125.155556-236.088889 275.911111-236.088889h34.133333v-48.355556c62.577778 45.511111 145.066667 102.4 164.977778 122.311111 51.2 45.511111 76.8 102.4 76.8 164.977778 0 125.155556-122.311111 233.244444-275.911111 233.244445z m-142.222222-275.911112c-22.755556 0-42.666667 19.911111-42.666667 42.666667s19.911111 42.666667 42.666667 42.666667 42.666667-17.066667 42.666666-42.666667c0-22.755556-19.911111-42.666667-42.666666-42.666667z m142.222222-2.844444c-25.6 0-45.511111 22.755556-45.511111 45.511111s22.755556 45.511111 45.511111 45.511111 45.511111-19.911111 45.511111-45.511111c0-22.755556-19.911111-45.511111-45.511111-45.511111z m156.444444 0c-25.6 0-45.511111 22.755556-45.511111 45.511111s22.755556 45.511111 45.511111 45.511111 45.511111-19.911111 45.511112-45.511111c0-22.755556-19.911111-45.511111-45.511112-45.511111z"  horiz-adv-x="1024" />

    
    <glyph glyph-name="tiezi" unicode="&#59692;" d="M245.248 572.544h533.504a41.152 41.152 0 1 1 0 82.304H245.248a41.152 41.152 0 1 1 0-82.304zM245.248 342.848h533.504a41.152 41.152 0 1 1 0 82.304H245.248a41.152 41.152 0 1 1 0-82.304zM245.248 113.152h334.528a41.152 41.152 0 1 1 0 82.368H245.248a41.152 41.152 0 1 1 0-82.368zM782.528 894.976H190.976a41.152 41.152 0 1 1 0-82.368h591.552a158.272 158.272 0 0 0 158.08-158.08v-541.056a158.272 158.272 0 0 0-158.08-158.08H241.472a158.272 158.272 0 0 0-158.08 158.08v533.12a41.152 41.152 0 1 1-82.368 0v-533.12a240.768 240.768 0 0 1 240.448-240.448h541.056a240.768 240.768 0 0 1 240.448 240.448V654.528A240.768 240.768 0 0 1 782.528 894.976z"  horiz-adv-x="1024" />

    
    <glyph glyph-name="weitongguo" unicode="&#58904;" d="M511.993639 896C229.22221 896 0 666.77779 0 384.006361s229.234932-512.006361 511.993639-512.006361 512.006361 229.234932 512.006361 511.993639S794.765068 896 511.993639 896z m197.097767-717.831799a38.371215 38.371215 0 0 0-54.223514 1.272255L511.993639 329.083107l-142.874253-149.642651a38.358493 38.358493 0 0 0-55.49577 52.951259l145.342428 152.238051-142.836085 149.604483a38.358493 38.358493 0 1 0 55.495769 52.951259l140.367911-147.021805 140.355188 147.021805a38.358493 38.358493 0 1 0 55.495769-52.951259L565.021233 384.629766 710.363661 232.391715a38.383938 38.383938 0 0 0-1.272255-54.223514z"  horiz-adv-x="1024" />

    
    <glyph glyph-name="banyuanxuankuang" unicode="&#58947;" d="M510.464 797.696c-202.752 0-369.152-166.912-369.152-369.152 0-205.312 166.912-372.224 369.152-372.224 205.312 0 372.224 166.912 372.224 372.224 0 202.24-166.912 369.152-372.224 369.152z m0-664.576V719.872c163.84 0 294.912-131.072 294.912-291.84 0-163.84-131.072-294.912-294.912-294.912z"  horiz-adv-x="1024" />

    
    <glyph glyph-name="banyuanxuankuang-copy" unicode="&#58890;" d="M510.013 835.637c-262.47 0-477.882-216.074-477.882-477.882 0-265.783 216.074-481.858 477.882-481.858 265.783 0 481.858 216.074 481.858 481.858 0 261.808-216.074 477.882-481.858 477.882zM510.013-24.682v759.573c212.098 0 381.776-169.678 381.776-377.798 0-212.098-169.678-381.776-381.776-381.776z"  horiz-adv-x="1024" />

    
    <glyph glyph-name="wenhao" unicode="&#59202;" d="M552.783 136.925H451.707V185.05c-3.217 89.814 38.507 165.218 125.138 226.213 99.398 67.395 144.408 139.582 134.79 216.595-12.836 93.031-70.612 144.408-173.297 154.026-131.606 6.435-210.194-59.386-235.865-197.325l-101.075 33.68C243.053 794.686 358.573 879.743 547.957 873.342c170.079-9.618 261.536-93.1 274.371-250.31 6.435-99.5-51.342-190.958-173.296-274.371-67.395-44.942-99.501-101.076-96.284-168.47l0.035-43.265z m9.618-240.657V16.613H437.263v-120.345h125.138z"  horiz-adv-x="1024" />

    
    <glyph glyph-name="taolun1" unicode="&#58920;" d="M363.264 26.24l-20.864 35.968s-41.344 71.232-58.496 101.568c-5.248 9.344-21.312 23.616-38.464 38.784-63.552 56.512-169.92 150.976-129.024 334.72 37.248 167.168 206.912 263.424 440.96 239.552 40-4.16 128.384-28.032 205.504-91.2 64.384-52.736 137.664-148.224 121.472-303.808-25.6-244.416-304.832-267.968-396.544-275.648-10.688-0.96-18.56-1.408-22.656-2.24-22.784-4.608-58.688-34.56-72.448-48.384l-29.44-29.312zM487.744 716.544c-164.032 0-282.368-73.984-308.8-193.152-32.704-147.008 49.216-219.84 109.056-272.96 22.144-19.712 41.28-36.672 51.712-55.232 9.28-16.384 25.6-44.864 38.656-67.392 20.288 15.808 47.744 33.472 73.984 38.784a320.64 320.64 0 0 0 30.08 3.328c136.576 11.52 320.256 46.656 338.304 218.56 10.624 102.08-22.528 185.408-98.432 247.68-60.8 49.792-135.872 73.344-171.584 77.056a613.184 613.184 0 0 1-62.976 3.328zM317.824 434.304m-49.152 0a49.152 49.152 0 1 1 98.304 0 49.152 49.152 0 1 1-98.304 0ZM515.008 434.304m-49.088 0a49.088 49.088 0 1 1 98.176 0 49.088 49.088 0 1 1-98.176 0ZM682.048 434.304m-49.152 0a49.152 49.152 0 1 1 98.304 0 49.152 49.152 0 1 1-98.304 0ZM797.184-14.784l-74.816 37.312c-3.2 1.216-6.912-0.32-9.6-1.344-12.864-5.248-33.28-12.416-66.816-12.928-63.616 0.448-100.032 55.744-111.424 88.384l60.288 21.376c0.192-0.448 17.088-45.568 51.648-45.824 21.376-0.32 32.064 4.032 42.112 8.192 14.208 5.76 33.536 13.824 62.144-0.448l21.504-10.688c1.408 3.904 2.752 8.192 3.968 12.736 6.4 24.64 22.016 46.592 37.12 67.84 31.488 44.288 38.72 61.504 23.04 82.432l51.264 38.4c46.208-61.696 5.056-119.552-22.144-157.888-11.776-16.512-23.936-33.6-27.328-46.784a193.472 193.472 0 0 0-25.088-57.856l-15.872-22.912z"  horiz-adv-x="1024" />

    
    <glyph glyph-name="xiangshangshouqi" unicode="&#59637;" d="M852 236L557.6 530.4 512 576l-45.6-45.6L176 240l45.6-44.8L512 485.6l294.4-294.4z"  horiz-adv-x="1024" />

    
    <glyph glyph-name="chengji" unicode="&#58972;" d="M865.180202 752.609106v-738.940508H158.491394s0.381922 0 0 0V752.609106h706.688808zM371.631638 503.553633c0-37.416157 7.620188-66.640459 22.908-87.74467 15.308489-21.053126 36.29715-31.599758 63.114374-31.599758 26.816007 0 47.932381 10.547848 63.302902 31.703145 15.415525 21.106643 23.081932 50.341893 23.081932 87.640067 0 37.301823-7.666408 66.53464-23.081932 87.627903-15.370521 21.158945-36.485679 31.71774-63.302902 31.71774-26.817223 0-47.803452-10.560011-63.114374-31.599757-15.287812-21.115158-22.908-50.340676-22.908-87.74467z m54.855623 0c0-22.159969 2.789001-39.516725 8.360921-52.080001 5.534215-12.563275 13.216434-18.834575 22.929894-18.834575 9.757246 0 17.483253 6.227512 23.015035 18.676455 5.596247 12.498811 8.36457 29.867731 8.36457 52.239337 0 22.477426-2.765891 39.940002-8.233209 52.441246-5.535431 12.508541-13.262654 18.779841-23.146396 18.77984-9.605207 0-17.229044-6.326033-22.864213-18.942826-5.59503-12.607063-8.426602-30.024635-8.426602-52.281909v0.002433z m-152.496198-108.901182h53.172248V618.791795c-29.26809 0.190961-69.008616 3.358234-82.900103-5.942896-13.851349-9.302346-12.077967-22.392284-12.290822-34.903258h42.018677v-183.29319zM565.469028 506.712392c0-37.403993 7.601943-66.629512 22.929893-87.734939 15.289028-21.053126 36.280122-31.608272 63.091264-31.608272 26.816007 0 47.932381 10.555146 63.283441 31.712875 15.415525 21.106643 23.10261 50.338244 23.10261 87.627904 0 37.311554-7.687085 66.53464-23.10261 87.649797-15.35106 21.157728-36.467434 31.705577-63.283441 31.705577-26.813574 0-47.802235-10.546632-63.091264-31.610705-15.330383-21.104211-22.929893-50.328513-22.929893-87.742237z m54.856839 0c0-22.150238 2.784136-39.508211 8.359705-52.071486 5.532998-12.552329 13.217651-18.834575 22.932326-18.834575 9.754814 0 17.484469 6.227512 23.015035 18.676454 5.597463 12.498811 8.362138 29.867731 8.362138 52.228391 0 22.474993-2.764675 39.950948-8.235642 52.44976-5.530566 12.498811-13.279683 18.78349-23.140315 18.783489-9.603991 0-17.23026-6.326033-22.886106-18.94161-5.578002-12.60463-8.407141-30.014905-8.407141-52.290423zM267.763551 329.098158c-16.192747 0-29.454185-13.249275-29.454185-29.445671 0-16.19518 13.260222-29.444455 29.454185-29.444455h150.490501c16.192747 0 29.451753 13.259005 29.451753 29.444455 0 16.184233-13.238328 29.445671-29.451753 29.445671H267.763551z m227.30905-30.205866c22.505401-19.336911 90.326898-86.70594 116.97627-88.0378 4.898084-0.242046 11.108568-0.065681 16.978484 2.668586 27.787839 12.942764 64.863429 57.317436 104.984661 100.751899 51.515633 55.735015 67.823929 70.400076 69.382024 84.787817 1.857307 17.229044-27.240499 34.310915-41.409306 22.572298-14.125019-11.728886-135.960451-148.8424-147.405936-148.00801-11.443053 0.831957-67.231586 60.402-83.027816 66.206236-15.792581 5.787207-27.618772 1.660264-34.667294-6.037768-7.094742-7.695599-8.360921-24.215534-1.814736-34.903258h0.003649zM267.763551 185.715778c-16.192747 0-29.454185-13.246842-29.454185-29.445671v-0.010947c0-16.1818 13.260222-29.434724 29.454185-29.434725h150.490501c16.192747 0 29.451753 13.261438 29.451753 29.434725v0.010947c0 16.187882-13.238328 29.445671-29.451753 29.445671H267.763551z m227.30905-40.297597c22.505401-19.34056 90.326898-86.708373 116.97627-88.040234 4.898084-0.254209 11.108568-0.063248 16.978484 2.669803 27.787839 12.94763 64.863429 57.317436 104.984661 100.750682 51.515633 55.735015 67.823929 70.397643 69.382024 84.789034 1.857307 17.23026-27.240499 34.314564-41.409306 22.572298-14.125019-11.728886-135.960451-148.853347-147.405936-148.015308-11.443053 0.833173-67.231586 60.417812-83.027816 66.20502-15.792581 5.805452-27.618772 1.669995-34.667294-6.0402-7.094742-7.684652-8.360921-24.219183-1.814736-34.892312l0.003649 0.001217z"  horiz-adv-x="1024" />

    
    <glyph glyph-name="yiwancheng" unicode="&#58908;" d="M509.901314-127.999863a515.387326 515.387326 0 0 0-339.674607 127.438107C77.285193 80.938159 16.847439 192.765756 0.274873 314.328447a29.251094 29.251094 0 0 0 57.975348 7.799528C88.852775 98.724749 282.982001-69.658017 509.901314-69.658017c251.337219 0 455.762739 203.440557 455.762739 453.540847s-204.414067 453.540847-455.762739 453.540846c-173.822965 0.091624-335.001762-100.637965-410.763699-256.582717a29.274 29.274 0 0 0-52.684037 25.460134 515.662199 515.662199 0 0 0 827.150846 139.64706 512.203378 512.203378 0 0 0-363.70311-873.867844z m-53.25669 327.041891a29.15947 29.15947 0 0 0-20.054294 7.925512L208.113402 421.929867a29.136563 29.136563 0 0 0-1.145305 41.230986 29.480155 29.480155 0 0 0 41.402782 1.145306l205.983134-193.739823L769.209857 642.515643a29.411437 29.411437 0 0 0 41.230987 3.435915 29.079298 29.079298 0 0 0 3.435915-41.070643l-334.829966-395.473875a29.525967 29.525967 0 0 0-20.707118-10.307746z"  horiz-adv-x="1024" />

    
    <glyph glyph-name="wodelilunxuexi" unicode="&#58898;" d="M672.768 157.696H244.736c-14.848 0-26.624 11.776-26.624 26.624s11.776 26.624 26.624 26.624h428.032c14.848 0 26.624-11.776 26.624-26.624s-11.776-26.624-26.624-26.624zM672.768 291.328H244.736c-14.848 0-26.624 11.776-26.624 26.624s11.776 26.624 26.624 26.624h428.032c14.848 0 26.624-11.776 26.624-26.624s-11.776-26.624-26.624-26.624zM351.744 559.104c-14.848 0-26.624 11.776-26.624 26.624 0 14.848 11.776 26.624 26.624 26.624h214.016c14.848 0 26.624-11.776 26.624-26.624 0-14.848-11.776-26.624-26.624-26.624H351.744zM699.904 451.584c0-14.848-11.776-26.624-26.624-26.624H244.736c-14.848 0-26.624 11.776-26.624 26.624 0 14.848 11.776 26.624 26.624 26.624h428.032c14.848 0.512 27.136-11.776 27.136-26.624zM913.92-29.696H111.104c-44.544 0-80.384 35.84-80.384 80.384V719.36c0 44.544 35.84 80.384 80.384 80.384h722.432c29.696 0 53.76-24.064 53.76-53.76V130.56c0-14.848-11.776-26.624-26.624-26.624-14.848 0-26.624 11.776-26.624 26.624V692.736c0 29.696-24.064 53.76-53.76 53.76H137.728c-29.696 0-53.76-24.064-53.76-53.76v-615.424c0-29.696 24.064-53.76 53.76-53.76H886.784c29.696 0 53.76 24.064 53.76 53.76V692.736c0 14.848 11.776 26.624 26.624 26.624s26.624-11.776 26.624-26.624v-642.048c0.512-44.544-35.84-80.384-79.872-80.384z"  horiz-adv-x="1024" />

    
    <glyph glyph-name="shixinyuan1" unicode="&#59836;" d="M512 799.2c229.3 0 415.2-185.9 415.2-415.2S741.3-31.2 512-31.2C282.7-31.2 96.8 154.7 96.8 384S282.7 799.2 512 799.2z"  horiz-adv-x="1024" />

    
    <glyph glyph-name="shoushuzhidao" unicode="&#59100;" d="M186.181818 896h651.636364c51.2 0 93.090909-41.890909 93.090909-93.090909v-837.818182c0-51.2-41.890909-93.090909-93.090909-93.090909h-651.636364c-51.2 0-93.090909 41.890909-93.090909 93.090909v837.818182c0 51.2 41.890909 93.090909 93.090909 93.090909z m46.545455-744.727273c-51.2 0-93.090909-41.890909-93.090909-93.090909v-46.545454c0-51.2 41.890909-93.090909 93.090909-93.090909h558.545454c51.2 0 93.090909 41.890909 93.090909 93.090909v139.636363h-651.636363z m218.763636 283.927273c-4.654545-4.654545-4.654545-4.654545-4.654545-9.309091-4.654545-13.963636 4.654545-23.272727 18.618181-27.927273l55.854546-13.963636c9.309091 0 13.963636 0 18.618182 4.654545l293.236363 242.036364 4.654546 4.654546c9.309091 9.309091 9.309091 23.272727 0 32.581818l-55.854546 51.2c-9.309091 9.309091-23.272727 9.309091-32.581818 0l-297.890909-283.927273z m-218.763636-181.527273c83.781818-9.309091 148.945455 0 204.8 23.272728s46.545455 65.163636-13.963637 121.018181l-190.836363-144.290909z"  horiz-adv-x="1024" />

    
    <glyph glyph-name="shanchu" unicode="&#58880;" d="M762.21784064 761.1349606399999L263.1514259911112 761.1349606399999c-45.94729415111111 0-83.17831850666667-37.22833464888889-83.17831850666667-83.17490972444445l0-27.725358648888886 665.4218865777777 0 0 27.725358648888886C845.3961591466667 723.9066259911111 808.1662987377779 761.1349606399999 762.21784064 761.1349606399999M616.9276586666667 816.5845128533333l12.23840654222222-87.50608725333335L396.2032014222222 729.0784244622222l12.237242595555555 87.50608725333335L616.9276586666667 816.5845128533333M623.5888628622222 872.0340639288888l-221.80729514666666 0c-22.879335537777777 0-44.16119239111111-18.519276657777777-47.35614862222222-41.2078944711111l-16.218130204444446-116.01734428444443c-3.1681763555555555-22.66067512888889 12.969614222222221-41.18111573333333 35.848948622222224-41.18111573333333l277.25911950222223 0c22.878170453333333 0 39.017126115555556 18.519276657777777 35.82216874666667 41.2078944711111l-16.21929415111111 116.01734428444443C667.74772736 853.5147872711111 646.4670344533333 872.0340639288888 623.5888628622222 872.0340639288888M776.0805057422222 594.7863051377777L249.28759694222225 594.7863051377777c-30.487150364444446 0-53.20464270222222-24.855371093333332-50.442821404444445-55.232993279999995L244.27975907555555 40.074227484444464c2.7338763377777777-30.378786133333335 29.973675804444444-55.232993279999995 60.460826168888886-55.232993279999995l415.88926122666663 0c30.487150364444446 0 57.72578474666667 24.855371093333332 60.460826168888886 55.232993279999995l45.43381845333333 499.47908437333336C829.2851484444443 569.9309340444445 806.5676561066666 594.7863051377777 776.0805057422222 594.7863051377777M401.7815677155556 95.74033749333353l-83.17831850666667 0-27.726494151111112 388.14686321777776 110.90364757333333 0L401.78040376888896 95.74033749333353zM568.1370396444444 95.74033749333353l-110.90364757333333 0L457.2333920711111 483.8872007111112l110.90364757333333 0L568.1370396444444 95.74033749333353zM706.7660174222221 95.74033749333353l-83.17831850666667 0L623.5876989155555 483.8872007111112l110.90364757333333 0L706.7660174222221 95.74033749333353z"  horiz-adv-x="1024" />

    
    <glyph glyph-name="huifu" unicode="&#59029;" d="M710.784 286.272H312.64a39.616 39.616 0 0 0 0 79.232h398.144a39.616 39.616 0 0 0 0-79.232zM602.24 448.704H312.64a39.616 39.616 0 0 0 0 79.232H602.24a39.616 39.616 0 0 0 0-79.232zM512-64a39.168 39.168 0 0 0-25.6 9.664l-128 111.104H162.944a99.712 99.712 0 0 0-99.328 99.84v512A99.712 99.712 0 0 0 162.944 768h697.6A99.712 99.712 0 0 0 960 668.416v-512a99.712 99.712 0 0 0-99.328-99.84h-195.904L537.6-54.016A39.168 39.168 0 0 0 512-64zM162.944 689.024a20.864 20.864 0 0 1-20.48-20.608v-512a20.864 20.864 0 0 1 20.48-20.608h210.432a39.232 39.232 0 0 0 25.6-9.664L512 28.352l112.512 97.984a39.232 39.232 0 0 0 25.6 9.664h210.432a20.8 20.8 0 0 1 20.48 20.608v512a20.864 20.864 0 0 1-20.48 20.608h-697.6z"  horiz-adv-x="1024" />

    
    <glyph glyph-name="caidan" unicode="&#58892;" d="M276.8856842041015 825.8379684448241c47.26095886230469 0 94.44232177734374-0.4758453369140625 141.78201141357422 0C457.4421691894531 826.2342178344727 475.5225616455079 806.0142517089844 475.6800231933593 768.9035064697266c0.23792266845703125-98.24821929931642 0.23792266845703125-196.25765075683594-0.3166534423828125-294.34667816162107-0.31751861572265627-35.68320922851562-20.458753967285155-54.0006591796875-54.87275390625-54.238581848144534-98.16862335205077-0.5554412841796875-196.33724670410155-0.31751861572265627-294.5058700561524 0.3166534423828125C88.71653900146487 420.8736877441406 69.368667602539 439.90404052734374 69.6057250976562 478.3627258300781 69.84451293945312 574.7075637817384 69.84451293945312 670.8932098388672 69.28907165527346 767.317643737793 69.05114898681643 808.789727783203 89.5877685546875 826.5517364501952 129.6331817626953 826.1554870605469c49.08474426269531-0.6350372314453125 98.16862335205077-0.23792266845703125 147.25250244140625-0.31751861572265627zM757.8165100097657 826.7100631713868c45.436308288574224 0 90.87348175048827-0.4758453369140625 136.30979003906248 0.15919189453125 39.96581726074219 0.3962493896484375 60.899551391601555-17.049105834960937 60.661628723144524-58.6795166015625-0.4758453369140625-96.34483795166017-0.4758453369140625-192.68967590332034-0.15832672119140626-289.1132446289063 0.15832672119140626-41.313757324218756-21.092926025390625-58.996170043945305-60.97914733886719-58.91743927001953-94.44145660400392 0.15919189453125-189.0412399291992 0.079595947265625-283.64188842773433-0.15832672119140626-43.45419616699219-0.079595947265625-62.167895507812496 22.123347473144534-61.85124206542968 64.62671813964842 0.4758453369140625 92.69640197753905 0.23878784179687504 185.4732650756836-0.07873077392578126 278.2492630004883-0.079595947265625 42.18585205078125 18.23785400390625 64.23046875 62.48541412353516 63.199182128906244 49.08387908935546-1.1896133422851562 98.16862335205077-0.23792266845703125 147.25250244140625-0.23792266845703125V826.7100631713868zM268.0046798706055 346.890119934082c47.41928558349609 0 94.75897521972655-0.7933639526367188 142.17826080322266 0.15832672119140626 42.34417877197265 0.951690673828125 65.57754364013671-16.33447265625 65.41921691894532-60.81995544433594-0.31751861572265627-94.75897521972655-0.15919189453125-189.59668121337893 0-284.3565216064453 0.07873077392578126-39.964086914062506-17.76200866699219-60.74035949707032-59.63120727539063-60.34324493408203-96.66149139404297 0.8720947265625001-193.24425201416017 0.792498779296875-289.90574340820314 0.15832672119140626-39.25204925537109-0.23792266845703125-56.45948181152343 19.189544677734375-56.45948181152343 56.85486602783203 0 96.6623565673828 0.15919189453125 193.32384796142577 0.15919189453125 289.74828186035154 0 41.47208404541016 21.251252746582033 59.23409271240235 61.454127502441416 58.52032470703125 45.594635009765625-0.6341720581054687 91.19100036621094 0.079595947265625 136.78563537597657 0.079595947265625zM954.0741607666015 142.62355957031264c0-49.08474426269531-0.079595947265625-98.16862335205077 0-147.17377166748048 0.079595947265625-35.68320922851562-17.286163330078125-53.76273651123047-53.28602600097656-53.60440979003906-98.089892578125 0.079595947265625-196.3381118774414 0.15919189453125-294.42713928222656-0.15832672119140626-38.29949340820312-0.15832672119140626-57.48990325927734 18.397045898437497-57.56863403320313 56.22069396972657-0.3962493896484375 96.42356872558594-0.3962493896484375 192.68967590332034-0.31751861572265627 288.9549179077149 0.079595947265625 40.04454803466797 19.74498596191406 60.2653793334961 60.42370605468751 60.18578338623046 96.26524200439452-0.15832672119140626 192.68967590332034-0.079595947265625 288.9549179077149-0.079595947265625 38.062435913085935-0.07873077392578126 56.696539306640624-18.87202606201172 56.4586166381836-57.172384643554686-0.4758453369140625-49.163475036621094-0.23792266845703125-98.16862335205077-0.23792266845703125-147.17290649414062z"  horiz-adv-x="1024" />

    
    <glyph glyph-name="552dc065f0478" unicode="&#58889;" d="M822.3957520507813-6.42799013671879L210.93182421875002-6.42799013671879c-32.377148437500004 0-58.71668994140625 26.340441503906252-58.71668994140625 58.71668994140625L152.21513427734374 266.13041542968756c0 8.94083818359375 7.248186035156249 16.18902421875 16.18902421875 16.18902421875s16.18902421875-7.248186035156249 16.18902421875-16.18902421875l0-213.84171562499998c0-14.52245361328125 11.815289648437501-26.338642382812502 26.338642382812502-26.338642382812502l611.4639278320312 0c14.523352734374999 0 26.338642382812502 11.816188769531252 26.338642382812502 26.338642382812502L848.7343944335937 266.13041542968756c0 8.94083818359375 7.248186035156249 16.18902421875 16.18902421875 16.18902421875s16.18902421875-7.248186035156249 16.18902421875-16.18902421875l0-213.84171562499998C881.1124419921875 19.912451367187487 854.7720004882813-6.42799013671879 822.3957520507813-6.42799013671879zM864.9234177734374 482.09379228515627c-8.94083818359375 0-16.18902421875 7.248186035156249-16.18902421875 16.18902421875l0 228.88581503906252c0 14.52245361328125-11.815289648437501 26.338642382812502-26.338642382812502 26.338642382812502L210.93182421875002 753.5072739257812c-14.523352734374999 0-26.338642382812502-11.815289648437501-26.338642382812502-26.338642382812502l0-228.88581503906252c0-8.94083818359375-7.248186035156249-16.18902421875-16.18902421875-16.18902421875s-16.18902421875 7.248186035156249-16.18902421875 16.18902421875l0 228.88581503906252c0 32.376249316406245 26.340441503906252 58.71668994140625 58.71668994140625 58.71668994140625l611.4639278320312 0c32.376249316406245 0 58.71668994140625-26.340441503906252 58.71668994140625-58.71668994140625l0-228.88581503906252C881.1124419921875 489.34197832031253 873.8651550781249 482.09379228515627 864.9234177734374 482.09379228515627zM906.7423642578125 371.15580820312505L127.07987626953121 371.15580820312505c-8.94083818359375 0-16.18902421875 7.248186035156249-16.18902421875 16.18902421875s7.248186035156249 16.18902421875 16.18902421875 16.18902421875l779.6615897460937 0c8.94083818359375 0 16.18902421875-7.248186035156249 16.18902421875-16.18902421875S915.6832024414064 371.15580820312505 906.7423642578125 371.15580820312505z"  horiz-adv-x="1024" />

    
    <glyph glyph-name="xuehao" unicode="&#59071;" d="M921.6-10.666667H102.4A100.885333 100.885333 0 0 0 0 88l0.469333 487.424v105.493333A100.48 100.48 0 0 0 102.4 778.666667h819.2a100.949333 100.949333 0 0 0 102.4-97.472v-593.194667a100.885333 100.885333 0 0 0-102.4-98.666667zM431.168 572.693333a42.666667 42.666667 0 0 1-42.666667 42.666667H177.408a42.666667 42.666667 0 0 1-42.666667-42.666667v-186.858666a42.666667 42.666667 0 0 1 42.666667-42.666667h211.093333a42.666667 42.666667 0 0 1 42.666667 42.666667v186.858666z m458.112 21.333334a21.333333 21.333333 0 0 1-21.333333 21.333333H533.333333a21.333333 21.333333 0 0 1-21.333333-21.333333v-38.997334a21.333333 21.333333 0 0 1 21.333333-21.333333h334.592a21.333333 21.333333 0 0 1 21.333334 21.333333v38.997334z m0-190.528a21.333333 21.333333 0 0 1-21.333333 21.333333H533.333333a21.333333 21.333333 0 0 1-21.333333-21.333333v-38.997334a21.333333 21.333333 0 0 1 21.333333-21.333333h334.592a21.333333 21.333333 0 0 1 21.333334 21.333333v38.997334z m0-163.306667a21.333333 21.333333 0 0 1-21.333333 21.333333H156.074667a21.333333 21.333333 0 0 1-21.333334-21.333333v-38.997333a21.333333 21.333333 0 0 1 21.333334-21.333334h711.850666a21.333333 21.333333 0 0 1 21.333334 21.333334v38.997333z"  horiz-adv-x="1024" />

    
    <glyph glyph-name="ziyuan" unicode="&#58887;" d="M753.623645 105.048276H258.269951c-45.399015 0-82.727094 37.328079-82.727094 82.727093V559.038424c0 45.399015 37.328079 82.727094 82.727094 82.727093h495.353694c45.399015 0 82.727094-37.328079 82.727094-82.727093v-371.263055c0-46.407882-37.328079-82.727094-82.727094-82.727093m-495.353694 41.363547h495.353694c23.203941 0 41.363547 18.159606 41.363547 41.363546V476.31133H216.906404v-289.544828c0-22.195074 18.159606-40.35468 41.363547-40.354679m495.353694 453.990147H258.269951c-23.203941 0-41.363547-18.159606-41.363547-41.363546v-41.363547h578.080788v41.363547c0 22.195074-18.159606 40.35468-41.363547 41.363546 0-1.008867 0-1.008867 0 0M278.447291 352.22069h206.817734c11.097537 0 20.17734-9.079803 20.17734-20.17734s-9.079803-20.17734-20.17734-20.17734H278.447291c-11.097537 0-20.17734 9.079803-20.17734 20.17734s9.079803 19.168473 20.17734 20.17734m0-82.727094H443.901478c11.097537 0 20.17734-9.079803 20.17734-20.17734s-9.079803-20.17734-20.17734-20.17734H278.447291c-11.097537 0-20.17734 9.079803-20.17734 20.17734 0 10.08867 9.079803 19.168473 20.17734 20.17734M567.992118 351.211823h41.363547c11.097537 0 20.17734-9.079803 20.17734-20.17734s-9.079803-20.17734-20.17734-20.17734h-41.363547c-11.097537 0-20.17734 9.079803-20.17734 20.17734-1.008867 10.08867 8.070936 20.17734 20.17734 20.17734z"  horiz-adv-x="1024" />

    
    <glyph glyph-name="dengpao" unicode="&#58888;" d="M525.7216 754.5856h-26.9312c-2.3552 0-4.3008 1.9456-4.3008 4.3008v124.928c0 2.3552 1.9456 4.3008 4.3008 4.3008h26.9312c2.3552 0 4.3008-1.9456 4.3008-4.3008v-124.928c0-2.3552-1.9456-4.3008-4.3008-4.3008zM359.936 717.312l-23.3472-13.5168c-2.048-1.1264-4.608-0.512-5.8368 1.536L268.288 813.568c-1.1264 2.048-0.512 4.608 1.536 5.8368l23.3472 13.5168c2.048 1.1264 4.608 0.512 5.8368-1.536l62.464-108.2368c1.1264-2.048 0.512-4.608-1.536-5.8368zM234.9056 602.2144l-13.5168-23.3472c-1.1264-2.048-3.7888-2.7648-5.8368-1.536l-108.2368 62.464c-2.048 1.1264-2.7648 3.7888-1.536 5.8368l13.5168 23.3472c1.1264 2.048 3.7888 2.7648 5.8368 1.536l108.2368-62.464c1.9456-1.2288 2.6624-3.7888 1.536-5.8368zM184.2176 440.0128v-26.9312c0-2.3552-1.9456-4.3008-4.3008-4.3008h-124.928c-2.3552 0-4.3008 1.9456-4.3008 4.3008v26.9312c0 2.3552 1.9456 4.3008 4.3008 4.3008h124.928c2.3552-0.1024 4.3008-1.9456 4.3008-4.3008zM221.3888 274.1248l13.5168-23.3472c1.1264-2.048 0.512-4.608-1.536-5.8368l-108.2368-62.464c-2.048-1.1264-4.608-0.512-5.8368 1.536l-13.5168 23.3472c-1.1264 2.048-0.512 4.608 1.536 5.8368l108.2368 62.464c2.048 1.2288 4.7104 0.512 5.8368-1.536zM793.6 247.296l13.5168 23.3472c1.1264 2.048 3.7888 2.7648 5.8368 1.536l108.2368-62.464c2.048-1.1264 2.7648-3.7888 1.536-5.8368l-13.5168-23.3472c-1.1264-2.048-3.7888-2.7648-5.8368-1.536l-108.2368 62.464c-2.048 1.2288-2.7648 3.8912-1.536 5.8368zM840.2944 412.9792v26.9312c0 2.3552 1.9456 4.3008 4.3008 4.3008h124.928c2.3552 0 4.3008-1.9456 4.3008-4.3008v-26.9312c0-2.3552-1.9456-4.3008-4.3008-4.3008h-124.928c-2.3552 0.1024-4.3008 1.9456-4.3008 4.3008zM803.1232 578.8672l-13.5168 23.3472c-1.1264 2.048-0.512 4.608 1.536 5.8368l108.2368 62.464c2.048 1.1264 4.608 0.512 5.8368-1.536l13.5168-23.3472c1.1264-2.048 0.512-4.608-1.536-5.8368l-108.2368-62.464c-2.048-1.2288-4.7104-0.512-5.8368 1.536zM687.9232 703.8976L664.576 717.312c-2.048 1.1264-2.7648 3.7888-1.536 5.8368l62.464 108.2368c1.1264 2.048 3.7888 2.7648 5.8368 1.536L754.688 819.5072c2.048-1.1264 2.7648-3.7888 1.536-5.8368l-62.464-108.2368c-1.1264-2.048-3.7888-2.7648-5.8368-1.536zM537.4976-123.5968h-50.4832c-4.4032 0-7.9872 3.584-7.9872 7.9872V-35.84c0 4.4032 3.584 7.9872 7.9872 7.9872h50.4832c4.4032 0 7.9872-3.584 7.9872-7.9872v-79.6672c0-4.5056-3.584-8.0896-7.9872-8.0896zM479.0272 6.144h66.4576v-95.744h-66.4576zM402.944 141.312v-153.088c0-32.8704 30.6176-59.6992 68.096-59.6992h82.6368c37.4784 0 68.096 26.8288 68.096 59.6992v146.432c-31.1296-11.0592-65.1264-17.2032-100.864-17.2032-42.3936 0-82.432 8.6016-117.9648 23.8592zM413.184-43.008c11.9808-16.9984 33.4848-28.4672 57.856-28.4672h82.6368c37.4784 0 68.096 26.8288 68.096 59.6992v95.4368h-35.7376C563.4048 13.2096 495.104-38.912 413.184-43.008zM402.944 118.8864v-43.8272H621.568V191.2832H402.944V176.128c31.0272-13.824 65.1264-22.016 101.0688-23.1424-31.8464-15.1552-65.7408-26.624-101.0688-34.0992zM504.0128 153.088c-35.9424 1.1264-70.0416 9.216-101.0688 23.1424v-57.2416c35.328 7.3728 69.2224 18.8416 101.0688 34.0992zM504.0128 153.088c-35.9424 1.1264-70.0416 9.216-101.0688 23.1424v-57.2416c35.328 7.3728 69.2224 18.8416 101.0688 34.0992zM758.3744 528.384c-41.3696 94.9248-135.9872 161.28-246.0672 161.28-148.2752 0-268.3904-120.2176-268.3904-268.3904 0-145.5104 115.712-263.7824 260.1984-268.1856C646.5536 221.2864 747.52 362.5984 758.3744 528.384zM758.3744 528.384C747.52 362.496 646.5536 221.184 504.0128 152.9856c2.7648-0.1024 5.5296-0.2048 8.2944-0.2048 148.2752 0 268.3904 120.2176 268.3904 268.3904 0 38.1952-7.9872 74.4448-22.3232 107.2128zM758.3744 528.384c-41.3696 94.9248-135.9872 161.28-246.0672 161.28-148.2752 0-268.3904-120.2176-268.3904-268.3904 0-145.5104 115.712-263.7824 260.1984-268.1856C646.5536 221.2864 747.52 362.5984 758.3744 528.384zM320.505006 374.082883a88.064 50.3808 72.002 1 1 54.420698 167.509582 88.064 50.3808 72.002 1 1-54.420698-167.509582Z"  horiz-adv-x="1024" />

    
    <glyph glyph-name="ren" unicode="&#58883;" d="M309.312 432.897c-21.504 44.992-32.896 94.592-32.896 145.856 0 78.656 27.2 150.848 72.256 208.384-8.384 1.217-16.896 2.048-25.536 2.112-0.576 0-1.152 0.064-1.728 0.064-109.888 0-198.912-89.088-198.912-198.976 0-54.784 22.144-104.512 58.048-140.416C73.664 410.689 0 328.193 0 232.897c0-37.376 47.616-79.873 120.576-109.632v0.512c0 121.984 71.488 235.776 188.736 309.12zM794.304 400.064c45.632 45.76 73.856 108.928 73.856 178.688 0 139.072-112.192 251.904-251.008 253.12-0.704 0.064-1.408 0.128-2.176 0.128h-0.064c-139.84 0-253.184-113.344-253.184-253.247 0-69.76 28.224-132.928 73.92-178.752-136-49.92-229.696-154.88-229.696-276.288 0-83.712 187.52-187.776 409.024-187.776C841.6-63.999 1024 37.697 1024 123.777c0 121.408-93.696 226.304-229.696 276.288z"  horiz-adv-x="1024" />

    
    <glyph glyph-name="zuoye" unicode="&#58923;" d="M958.012888 781.022457v-624.777974c-8.598321-9.598125-17.096661-19.296231-25.894942-28.694395-77.884788-82.283929-155.869557-164.367897-233.754345-246.651826-2.599492-2.699473-4.599102-5.898848-6.898653-8.898262H169.866823c-2.799453 0.499902-5.698887 1.199766-8.49834 1.499707-49.290373 4.599102-89.882445 37.792619-103.57977 84.883421-1.799649 6.198789-3.199375 12.397579-4.699082 18.696349V792.620191c0.599883 1.799649 1.499707 3.499317 1.899629 5.298965 9.898067 47.290764 37.99258 78.18473 83.683655 93.181801 5.798867 1.899629 11.697715 3.099395 17.596564 4.699082h696.763913c1.799649-0.599883 3.599297-1.399727 5.498926-1.699668 48.890451-9.898067 80.48428-38.992384 94.681507-86.68307 2.399531-8.49834 3.199375-17.596563 4.799063-26.394844z m-75.685218-552.392111c0.199961 4.099199 0.599883 7.198594 0.599883 10.397969 0 172.866237 0.09998 345.832455 0 518.698691 0 39.892209-24.495216 64.187463-64.387424 64.187464H191.862527c-40.392111 0-64.787346-24.495216-64.787346-64.887327v-744.454599c0-41.191955 23.995313-65.287249 65.287248-65.287248 137.57313-0.09998 275.04628 0 412.61941 0 3.499317 0 6.898653 0.299941 11.297794 0.499902v12.297598 145.97149c0.09998 71.486038 51.090021 122.576059 122.576059 122.67604 44.091388 0.09998 88.182777 0 132.374146 0 3.299356-0.09998 6.798672-0.09998 11.097832-0.09998zM690.265183-16.621754c0.799844-0.199961 1.499707-0.499902 2.29955-0.699863 53.789494 56.688928 107.479008 113.377856 162.468268 171.36653-4.29916 0.199961-6.39875 0.499902-8.59832 0.499902-31.393868 0-62.887717 0.199961-94.281586 0-37.192736-0.199961-61.687952-24.995118-61.887912-62.587775-0.09998-31.69381 0-63.4876 0-95.18141v-13.397384zM489.804335 673.643429c72.585823 0 145.271627-0.199961 217.85745 0.199961 9.798086 0.09998 13.097442-2.699473 12.69752-12.59754-0.699863-17.196641-0.499902-34.393283-0.099981-51.489943 0.199961-7.298574-1.799649-10.297989-9.798086-10.297989-146.871314 0.199961-293.742628 0.199961-440.513962 0-7.198594 0-9.698106 2.19957-9.498145 9.398165 0.399922 18.096466 0.499902 36.292912 0 54.489357-0.199961 8.098418 2.599492 10.49795 10.59793 10.49795 72.885764-0.299941 145.871509-0.199961 218.757274-0.199961zM491.004101 495.378246c72.285882 0 144.571763-0.199961 216.857645 0.199961 9.998047 0.09998 12.897481-2.799453 12.497559-12.597539-0.799844-16.496778-0.599883-33.093536 0-49.590315 0.299941-9.198203-2.399531-12.397579-11.997657-12.297598-50.290178 0.399922-100.480375 0.199961-150.770553 0.199961h-282.944737c-14.097247 0-14.097247 0-14.097246 13.597345 0 16.196837 0.499902 32.393673-0.199961 48.590509-0.399922 9.198203 2.299551 12.097637 11.897676 12.097637 72.885764-0.299941 145.771529-0.199961 218.757274-0.199961zM394.023042 332.710018c40.492091 0 80.984183-0.299941 121.576255 0.199961 9.498145 0.09998 12.397579-2.999414 11.997657-12.297599-0.599883-17.196641-0.499902-34.393283 0-51.489943 0.199961-7.798477-1.999609-10.897872-10.397969-10.897871-82.283929 0.199961-164.667838 0.199961-246.951768 0-7.698496 0-10.098028 2.799453-9.898066 10.198008 0.399922 18.096466 0.399922 36.292912 0 54.489357-0.199961 7.798477 2.799453 9.998047 10.198008 9.998048 41.191955-0.299941 82.383909-0.199961 123.475883-0.199961zM556.591291 20.670963v-28.794376c-3.499317-0.199961-6.898653-0.399922-10.297989-0.399922h-204.959969c-3.199375 0-6.498731 0-9.598125 0.699863-7.598516 1.699668-11.897676 6.798672-11.697715 14.497169 0.09998 7.698496 4.599102 12.59754 12.297598 14.097246 2.499512 0.499902 5.198985 0.499902 7.698496 0.499903h207.859403c2.699473 0 5.498926-0.399922 8.698301-0.599883zM290.143331 6.373755c0-7.898457-7.098614-14.79711-15.097051-14.697129-7.898457 0.199961-14.097247 6.29877-14.197227 14.297207-0.199961 8.39836 6.098809 15.097051 14.397188 15.197032 7.798477 0.09998 14.89709-6.898653 14.89709-14.79711z"  horiz-adv-x="1024" />

    
    <glyph glyph-name="tiwen" unicode="&#58907;" d="M512 384m-512 0a512 512 0 1 1 1024 0 512 512 0 1 1-1024 0ZM472.746667 254.293333v18.773334c0 23.893333 3.413333 46.08 10.24 64.853333 5.12 13.653333 13.653333 27.306667 25.6 40.96 8.533333 10.24 23.893333 23.893333 46.08 44.373333 22.186667 18.773333 35.84 34.133333 42.666666 46.08s10.24 23.893333 10.24 37.546667c0 23.893333-10.24 46.08-29.013333 64.853333-18.773333 18.773333-42.666667 27.306667-69.973333 27.306667-27.306667 0-49.493333-8.533333-66.56-25.6s-29.013333-42.666667-35.84-78.506667L341.333333 503.466667c5.12 47.786667 23.893333 83.626667 51.2 109.226666s66.56 37.546667 114.346667 37.546667c49.493333 0 90.453333-13.653333 119.466667-40.96s44.373333-59.733333 44.373333-98.986667c0-22.186667-5.12-42.666667-15.36-61.44s-30.72-42.666667-61.44-68.266666c-20.48-18.773333-34.133333-32.426667-40.96-40.96s-10.24-18.773333-13.653333-29.013334-5.12-29.013333-5.12-54.613333h-61.44z m-3.413334-126.293333v71.68h71.68V128h-71.68z"  horiz-adv-x="1024" />

    
    <glyph glyph-name="xuexi" unicode="&#59090;" d="M901.188267 133.154133c73.796267 2.082133 64.273067 43.52 64.273066 64.273067l1.7408 631.534933c0 19.933867-14.370133 36.693333-32.017066 36.693334H192.238933c-30.651733 0-59.4944-7.816533-80.930133-20.411734-27.921067-15.7696-45.021867-41.0624-45.021867-71.543466v-780.356267c0.238933-29.3888 17.6128-54.647467 45.090134-70.9632 21.4016-12.3904 50.244267-20.002133 80.861866-20.002133h743.1168c17.6128 0 32.085333 1.262933 32.017067 21.777066-0.136533 18.8416-13.994667 20.002133-31.573333 20.002134H194.7648c-85.367467 3.310933-88.064 49.698133-88.064 49.698133v0.546133c0.341333 0 0 50.141867 0 94.9248 2.6624 35.7376 28.296533 45.2608 53.930667 43.861334h740.5568v-0.034134z m22.596266 692.667734l0.750934-654.2336H169.7792c-22.766933 0-46.660267 0-62.600533-11.0592V773.632S113.902933 817.493333 172.3392 825.685333l751.445333 0.136534zM967.338667 39.662933c0-11.605333-9.386667-20.992-20.957867-20.992H216.029867a20.957867 20.957867 0 1 0 0 41.949867h730.3168c11.5712 0 20.992-9.386667 20.992-20.957867zM662.289067 540.672l-205.960534 135.5776c-35.566933 23.415467-64.648533 7.748267-64.648533-34.850133v-285.2864c0-42.530133 29.149867-58.299733 64.750933-34.952534l205.789867 134.656c35.601067 23.278933 35.6352 61.474133 0.068267 84.855467z m-27.4432-56.4224l-182.8864-119.739733c-11.8784-7.7824-21.572267-2.525867-21.572267 11.639466V621.329067c0 14.165333 9.693867 19.387733 21.538133 11.605333l182.9888-120.4224c11.844267-7.7824 11.810133-20.514133-0.068266-28.2624z m0 0"  horiz-adv-x="1033" />

    
    <glyph glyph-name="guanbi" unicode="&#58917;" d="M19.471327 878.074523a46.477485 46.477485 0 0 0 65.72057 0l920.535493-920.535493a46.477485 46.477485 0 1 0-65.7845-65.72057L19.471327 812.290022a46.541415 46.541415 0 0 0 0 65.784501zM13.781512-113.93528700000002a46.988929 46.988929 0 0 0 0 66.423806L943.586929 882.293937a46.988929 46.988929 0 1 0 66.423806-66.423806L80.205317-113.93528700000002a46.988929 46.988929 0 0 0-66.423805 0z"  horiz-adv-x="1024" />

    
    <glyph glyph-name="weiwancheng1" unicode="&#58971;" d="M512-64C264.576-64 64 136.576 64 384S264.576 832 512 832s448-200.576 448-448-200.576-448-448-448z m0 48c220.914 0 400 179.086 400 400S732.914 784 512 784 112 604.914 112 384s179.086-400 400-400z m24 616v-312c0-13.254-10.746-24-24-24s-24 10.746-24 24V600c0 13.254 10.746 24 24 24s24-10.746 24-24z m-24-472c-26.51 0-48 21.49-48 48s21.49 48 48 48 48-21.49 48-48-21.49-48-48-48z"  horiz-adv-x="1024" />

    
    <glyph glyph-name="mima" unicode="&#58902;" d="M868.864 519.6800000000001H210.432c-1.536 129.536 77.824 267.776 241.152 307.712 112.64 25.6 233.984-18.432 306.688-109.056 8.192-11.776 32.256-20.48 52.224-6.144 22.016 20.992 3.072 44.544-2.048 49.664C717.312 862.72 579.072 913.408 439.808 882.176 263.68 842.752 143.36 691.2 139.264 515.5840000000001c-35.328-12.288-71.168-50.688-71.168-84.48v-471.04c0-40.96 53.248-83.456 94.208-83.456h705.024c40.96 0 91.136 43.52 91.136 84.48V434.176c-0.512 40.96-38.912 85.504-89.6 85.504z m32.768-519.168c0-40.96-26.112-67.072-67.072-67.072H191.488c-40.96 0-67.072 26.112-67.072 67.072l0.512 395.776c0 40.96 26.112 67.072 67.072 67.072h642.56c40.96 0 67.072-26.112 67.072-67.072v-395.776zM525.312 346.624c-47.616 0-86.528-38.912-86.528-86.528 0-34.304 20.48-64 49.664-77.824v-95.232c0-20.48 16.384-36.864 36.864-36.864s36.864 16.384 36.864 36.864v95.232c29.184 13.824 49.664 43.52 49.664 77.824 0 47.616-38.912 86.528-86.528 86.528zM845.312 583.168c19.456 0 35.328 15.872 35.328 35.328s-15.872 35.328-35.328 35.328c-19.456 0-35.328-15.872-35.328-35.328s15.872-35.328 35.328-35.328z"  horiz-adv-x="1024" />

    
    <glyph glyph-name="xinzeng1" unicode="&#59028;" d="M318.4 347.2c-20.8 0-36.8-16-36.8-36.8 0-19.2 17.6-36.8 36.8-36.8h134.4c20.8 0 36.8 16 36.8 36.8s-16 36.8-36.8 36.8h-134.4zM691.2 531.2c0 19.2-16 36.8-36.8 36.8h-336c-20.8 0-36.8-16-36.8-36.8s16-36.8 36.8-36.8h336c20.8 1.6 36.8 17.6 36.8 36.8zM892.8 169.6H768v120c0 19.2-16 33.6-35.2 33.6h-8c-19.2 0-35.2-14.4-35.2-33.6v-120h-124.8c-19.2 0-35.2-14.4-35.2-33.6v-8c0-19.2 16-33.6 35.2-33.6H688v-120c0-19.2 16-33.6 35.2-33.6h8c19.2 0 35.2 14.4 35.2 33.6v120h124.8c19.2 0 35.2 14.4 35.2 33.6v8c1.6 17.6-14.4 33.6-33.6 33.6zM475.2 40H227.2c-1.6 0-3.2 0-4.8 1.6l-9.6 3.2c-1.6 0-1.6 0-1.6 1.6-3.2 1.6-4.8 3.2-6.4 3.2 0 0-1.6 1.6-3.2 1.6l-1.6 1.6c-3.2 3.2-6.4 4.8-8 8l-6.4 8c-1.6 1.6-1.6 3.2-1.6 4.8v3.2l-4.8 3.2c-1.6 4.8-3.2 8-3.2 11.2V694.4c0 4.8 1.6 9.6 3.2 12.8l1.6 3.2v1.6l1.6 1.6c1.6 1.6 1.6 3.2 1.6 3.2s0 1.6 1.6 1.6h4.8v6.4c0 1.6 1.6 1.6 3.2 3.2l1.6 1.6s1.6 0 1.6 1.6l1.6 1.6c3.2 1.6 4.8 3.2 8 4.8l4.8 3.2 3.2 1.6c3.2 0 4.8 1.6 6.4 1.6 1.6 0 3.2 1.6 6.4 1.6H753.6c1.6 0 4.8-1.6 6.4-1.6l3.2-1.6c1.6 0 1.6 0 3.2-1.6l9.6-4.8h1.6c1.6-1.6 1.6-1.6 3.2-1.6l1.6-1.6 1.6-1.6 1.6-1.6 1.6-1.6 1.6-3.2 1.6-1.6c0-1.6 1.6-1.6 1.6-1.6 1.6-1.6 3.2-4.8 4.8-8v-1.6l1.6-1.6s0-1.6 1.6-1.6l1.6-3.2c0-1.6 1.6-4.8 1.6-8v-366.4c0-19.2 16-36.8 36.8-36.8 20.8 0 36.8 16 36.8 36.8V684.8c1.6 22.4-3.2 48-17.6 68.8-16 25.6-40 44.8-70.4 56-22.4 6.4-43.2 6.4-62.4 6.4H254.4c-17.6 0-33.6 0-52.8-4.8-59.2-14.4-100.8-68.8-100.8-128v-580.8c0-40 16-75.2 44.8-100.8 24-20.8 52.8-32 86.4-33.6H476.8c20.8 0 36.8 16 36.8 36.8s-19.2 35.2-38.4 35.2z"  horiz-adv-x="1024" />

    
    <glyph glyph-name="daishenhe" unicode="&#59015;" d="M512-128A512 512 0 1 1 512 896a512 512 0 0 1 0-1024z m39.936 505.270857l111.323429-65.462857a22.016 22.016 0 0 0 7.606857-30.573714 22.381714 22.381714 0 0 0-30.939429-7.241143L522.020571 347.648a73.142857 73.142857 0 0 0-34.377142 62.025143V531.529143a23.186286 23.186286 0 0 0 46.299428 0v-122.733714a36.571429 36.571429 0 0 1 17.993143-31.451429z m87.405714-201.874286c15.579429 7.533714 27.136 5.266286 34.596572-6.802285 7.460571-12.068571 3.949714-23.698286-10.605715-35.035429A292.571429 292.571429 0 1 0 804.571429 384c0.073143-25.161143-2.56-47.762286-7.826286-67.730286-6.217143-18.358857-16.749714-25.6-31.451429-21.723428-14.628571 3.949714-19.968 14.994286-15.945143 32.987428 5.046857 18.139429 7.533714 36.937143 7.533715 56.466286 0 138.971429-106.057143 242.834286-245.028572 242.834286-138.971429 0-242.322286-103.862857-242.322285-242.834286s103.424-243.858286 242.322285-243.858286c46.592 0 88.649143 11.702857 127.561143 35.254857zM731.428571 213.357714a24.356571 24.356571 0 1 0 0 48.713143 24.356571 24.356571 0 0 0 0-48.713143z"  horiz-adv-x="1024" />

    
    <glyph glyph-name="icon-test" unicode="&#58925;" d="M751.104 623.104C686.08 688.64 606.208 721.408 512 721.408s-174.08-32.768-239.104-98.304C207.36 558.08 174.592 478.208 174.592 384c0-90.112 32.768-168.96 98.304-236.032 65.536-67.584 145.408-101.376 239.104-101.376s174.08 33.792 239.104 101.376c65.536 67.584 98.304 146.432 98.304 236.032 0 94.208-32.768 174.08-98.304 239.104z m-47.104-428.544c-52.736-54.272-116.736-81.408-192-81.408s-139.264 27.136-192 81.408c-52.224 54.272-78.848 117.248-78.848 189.44 0 75.776 26.112 139.264 78.848 192S436.224 654.848 512 654.848s139.264-26.112 192-78.848c52.224-52.736 78.848-116.736 78.848-192 0-72.192-26.112-135.68-78.848-189.44z"  horiz-adv-x="1024" />

    
    <glyph glyph-name="kejian" unicode="&#59034;" d="M912.5 529.7v60c0 51.7-42.1 109.4-98.6 109.4H530.1l-11.6 21.4c-12 22-35.1 35.5-60.1 35.3H155.7c-50.6 0-91.6-40.9-91.7-91.5v-560.7c0.1-50.6 41.1-91.5 91.7-91.5h712.6c50.6 0 91.6 40.9 91.7 91.5V447.8c-2.8 33-20.2 63.1-47.5 81.9zM814 644.1c19.6 0 41.9-29 41.9-54.3v-38.1c-0.9 0.2-1.9 0.2-2.9 0.2H610.4L560 644.1h254z m89.4-540.4c0.4-19.8-15.2-36.2-35-36.6H155.7c-19.8 0.4-35.5 16.8-35.1 36.5V664.3c-0.4 19.8 15.2 36.2 35 36.6h302.8c4.1 0 8-2.3 9.9-5.9l100.1-183.6c5-9.1 14.6-14.7 25-14.7H853c25.1-4.7 45-24 50.3-49l0.1-344z"  horiz-adv-x="1024" />

    
    <glyph glyph-name="kecheng" unicode="&#59068;" d="M182.5792 683.5968H130.5344c-27.904 0-48.384-22.656-48.384-50.5856v-52.0448l148.9408 1.6128v50.5856c0 27.776-20.608 50.432-48.512 50.432zM485.6064 736.6656a50.3808 50.3808 0 0 1-50.432 50.5856h-104.2176c-27.9296 0-46.336-22.656-46.336-50.5856V684.032l201.0112-1.6128V736.6656zM82.1504 529.9712h148.9408v-403.584H82.1504zM82.1504 29.5936c0-27.9296 20.4544-50.5856 48.384-50.5856h52.0448c27.904 0 48.384 22.656 48.384 50.5856v46.3616H82.1504v-46.3616zM284.7488 128.4352l200.9856-0.6144V632.576h-200.9856zM893.0048 533.0432h-7.9104c-27.904 0-45.312-24.704-45.312-52.6336v-99.4048h100.5568v101.5808c0 27.9296-19.4048 50.4576-47.3344 50.4576zM839.808 178.9952l100.5312 2.0224v146.944l-100.5312-0.5888zM284.7488 29.5936c0-27.9296 18.4064-50.5856 46.336-50.5856h104.2176a50.5856 50.5856 0 0 1 50.5856 50.5856v45.7472h-201.1392v-45.7472zM738.3296 683.008H585.728c-27.904 0-50.5856-22.656-50.5856-50.5856v-604.5952c0-27.9296 22.6816-50.5856 50.5856-50.5856h152.6016a50.6112 50.6112 0 0 1 50.6112 50.5856V632.576a50.5856 50.5856 0 0 1-50.6112 50.432zM839.808 25.8048c0-27.9296 17.408-48.4096 45.312-48.4096h7.9104c27.9296 0 47.36 22.656 47.36 50.6112v99.968l-100.5568-2.048v-100.1216z"  horiz-adv-x="1024" />

    
    <glyph glyph-name="shiyanshi" unicode="&#59072;" d="M288.4352 264.5504a32.4608 32.4608 0 1 1 64.896 0 32.4608 32.4608 0 0 1-64.896 0zM534.1952 186.0352a63.1552 63.1552 0 1 1 126.3104 0 63.1552 63.1552 0 0 1-126.3104 0zM650.24 460.8a32.4096 32.4096 0 1 1 64.8704 0 32.4352 32.4352 0 1 1-64.8704 0zM873.8048 510.2848c-6.8096 11.9552-13.6448 22.1952-20.4544 34.1504-40.9856 68.2752-98.9952 119.4752-165.5552 150.1952 0 0-1.7152 0-1.7152 1.7152-6.8352 3.4048-15.36 6.8352-23.8848 10.24C622.9504 723.6352 563.2 761.1648 554.6496 803.84c0 0-6.8096-39.2448-27.2896-69.9648l-6.8096-10.24c-34.1248-44.3648-85.3248-85.3248-158.72-128C307.2 563.2 254.2848 541.0048 206.5152 529.0752c-69.9648-18.7648-85.3248-5.12-85.3248-5.12 25.5744-18.7904 11.9296-93.8752 11.9296-93.8752-17.0752-75.0848-13.6704-153.6 13.6448-228.6848a398.08 398.08 0 0 1 35.84-83.6608c76.8-134.8096 215.04-209.8944 356.6848-209.8944 64.8448 0 131.4304 15.36 191.1552 49.5104 189.4656 109.2096 254.3104 356.6848 143.36 552.9344zM677.5552 76.8C640-18.7648 489.8048-51.2 435.2-59.7504 337.92-32.4352 250.88 32.4352 196.2752 128a314.112 314.112 0 0 0-29.0304 64.8448 386.56 386.56 0 0 0 13.6704 228.7104c1.6896 1.6896 1.6896 3.4048 3.4048 3.4048 5.12 3.4048 13.6448 1.6896 15.36-5.12 1.7152-1.6896 1.7152-3.4048 1.7152-5.12s-1.7152-6.8352-1.7152-8.5248c0-1.7152-1.7152-6.8352-1.7152-6.8352-3.4048-13.6448-1.7152-27.3152 5.12-40.96 15.36-27.2896 51.2-39.2448 78.5152-23.9104s39.2448 51.2 23.8848 78.5152c-6.8096 13.6704-18.7648 22.1952-32.4096 27.3152h-3.4048c-1.6896 0-3.4048 1.6896-5.12 1.6896a44.7232 44.7232 0 0 0-27.3152 22.1952c-11.9552 20.48-5.12 46.08 11.9552 61.44H250.88c44.3648 23.9104 102.4 8.5248 126.3104-37.5296 11.9552-22.1952 13.6448-46.08 8.5248-68.2752-1.7152-3.4048-3.4304-13.6448-3.4304-13.6448-6.8352-25.6-3.4048-52.9152 10.24-78.5152 29.0048-52.8896 95.5648-73.3696 148.4544-44.3648C593.92 312.32 614.4 378.88 585.3952 431.7952c-13.6448 25.6-35.84 42.6752-59.7504 51.2 0 0-10.24 3.4048-13.6448 3.4048-22.1952 6.8352-40.96 22.1952-52.9152 44.3648-23.8848 44.3648-8.5248 102.4 37.5552 126.2848h1.7152c22.1952 6.8352 46.08-1.6896 58.0352-23.8848 6.8352-11.9552 6.8352-23.9104 5.12-35.84 0-1.7152-1.6896-3.4048-1.6896-5.12 0-1.6896 0-1.6896-1.7152-3.4048-3.4304-13.6448-1.6896-27.3152 5.12-40.96 15.36-27.2896 51.2-39.2448 78.4896-23.8848s39.2448 51.2 23.9104 78.4896c-6.8352 13.6704-18.7648 22.1952-32.4352 27.3152 0 0-5.12 1.6896-6.8352 1.6896S619.52 634.88 619.52 634.88c-1.7152 1.7152-3.4304 1.7152-3.4304 5.12-3.4048 5.12-1.6896 13.6448 5.12 15.36 1.7152 0 3.4304 1.6896 5.12 1.6896 73.3952-15.36 141.6448-52.8896 194.56-107.52 13.6448-17.0752 25.6-35.84 37.5552-54.6048 54.6048-97.28 64.8448-208.2048 35.84-307.2-78.4896 20.48-172.3648 1.7152-216.7296-110.9248zM361.8048 621.2352c114.3552 69.9648 182.6048 163.84 153.6 211.6352S370.3552 861.8752 256 793.6s-182.6048-163.84-153.6-211.6352 145.0752-30.72 259.4048 39.2704z m-209.92 8.5248c-17.0752 29.0048 39.2704 92.16 122.88 138.24s165.5552 61.44 182.6048 30.72c17.0752-29.0048-39.2448-92.16-122.88-138.24C250.88 614.4 168.96 600.7552 151.8848 629.76z"  horiz-adv-x="1024" />

    
    <glyph glyph-name="tuichu" unicode="&#59083;" d="M512 33.03c-183.805 0-333.343 149.526-333.343 333.33 0 96.252 41.598 187.777 114.134 251.125 18.446 16.136 46.469 14.219 62.58-4.22 16.113-18.452 14.22-46.469-4.232-62.58-53.242-46.506-83.778-113.689-83.778-184.325 0-134.887 109.747-244.627 244.64-244.627s244.64 109.74 244.64 244.627c0 70.624-30.53 137.808-83.766 184.312-18.445 16.112-20.338 44.13-4.22 62.58 16.118 18.452 44.129 20.345 62.58 4.22C803.752 554.126 845.344 462.6 845.344 366.36 845.343 182.556 695.804 33.03 512 33.03zM512 311.057c-24.496 0-44.352 19.861-44.352 44.352v338.38c0 24.49 19.855 44.352 44.352 44.352 24.496 0 44.352-19.862 44.352-44.352v-338.38c0-24.49-19.856-44.352-44.352-44.352z"  horiz-adv-x="1024" />

    
    <glyph glyph-name="dengdai" unicode="&#58903;" d="M512 566.675a33.868 33.868 0 0 1-34.101-33.589v-224.1c0-1.535 0.744-2.884 0.93-4.372 0.326-2.466 0.605-4.746 1.443-6.979 0.79-2 1.86-3.722 2.93-5.443 1.117-1.907 2.187-3.722 3.722-5.443 1.582-1.721 3.443-2.884 5.397-4.466 1.256-0.838 2.093-2.187 3.536-2.885l195.162-103.745a34.148 34.148 0 0 1 16.143-4.001 34.148 34.148 0 0 1 30.054 17.632 33.403 33.403 0 0 1-13.864 45.592l-177.25 94.302V533.086A33.961 33.961 0 0 1 512 566.676z m454.386-179.251a33.822 33.822 0 0 1-34.008-33.636c0-228.612-188.556-414.516-420.331-414.516-231.823 0-420.332 185.904-420.332 414.516 0 228.659 188.51 414.563 420.332 414.563a426.612 426.612 0 0 0 146.778-26.797l-44.754-11.817a33.543 33.543 0 0 1 8.792-66.062 34.38 34.38 0 0 1 8.84 1.117l109.56 28.983a56.292 56.292 0 0 1 34.66 26.146 54.897 54.897 0 0 1 5.582 42.521L752.15 870.608a33.961 33.961 0 0 1-41.731 23.82A33.59 33.59 0 0 1 686.32 853.3l14.98-55.22A497.327 497.327 0 0 1 512 835.576c-269.366 0-488.487-216.144-488.487-481.788S242.634-128 512-128c269.32 0 488.487 216.144 488.487 481.741 0 18.61-15.26 33.683-34.1 33.683z"  horiz-adv-x="1024" />

    
    <glyph glyph-name="shanchu1" unicode="&#59214;" d="M374.784 529.408l0.512-315.392c2.048-12.8 7.68-18.432 18.944-20.992l232.96 0.512c17.92 3.072 23.552 12.8 23.04 39.936l0.512-39.424-0.512 335.36H374.784z m103.424-285.184c0-9.728-7.68-17.408-17.408-17.408s-17.408 7.68-17.408 17.408V476.672c0 9.728 7.68 17.408 17.408 17.408s17.408-7.68 17.408-17.408v-232.448z m103.424 0c0-9.728-7.68-17.408-17.408-17.408s-17.408 7.68-17.408 17.408V476.672c0 9.728 7.68 17.408 17.408 17.408s17.408-7.68 17.408-17.408v-232.448zM971.264 424.96c-5.632 68.096-26.112 131.584-59.904 190.464-19.968 34.816-44.544 66.048-73.216 95.232-33.792 33.792-71.68 61.952-114.176 83.968-44.544 23.552-92.16 38.912-142.336 46.592-31.744 4.608-63.488 6.656-95.232 4.608-43.52-2.56-86.528-10.752-128-25.088-50.176-17.92-96.256-43.008-137.216-76.288-45.056-37.376-82.944-81.408-112.128-132.608-27.648-49.152-46.08-101.376-54.272-156.672-5.632-36.864-7.168-73.728-4.096-111.616 4.608-56.32 19.456-110.08 44.032-161.28 17.92-37.376 40.448-71.168 67.584-102.4 41.472-47.616 90.112-84.992 146.944-112.128 42.496-20.992 87.552-34.816 134.656-41.472 12.8-2.048 26.112-3.584 38.912-4.096 1.024 0 2.048 0 3.072-1.024h50.688c5.12 2.048 10.24 1.536 15.872 2.048 68.096 6.144 131.584 26.112 190.464 59.904 34.816 19.968 66.56 44.544 95.744 73.216 33.792 33.792 61.44 71.168 83.456 113.664 23.552 45.056 38.912 92.16 47.104 142.336 2.56 13.824 4.096 27.136 4.608 41.472 0 1.536 0 3.072 1.024 4.096v50.688c-3.584 5.12-3.072 10.752-3.584 16.384zM706.56 529.408h-22.016l1.024-330.24c-0.512-22.528-16.384-40.96-38.912-40.96h-20.48l-225.28-0.512v0.512h-20.48c-22.016 0-38.4 17.408-39.424 38.912l-0.512 332.288h-23.552c-11.264 0-18.944 6.144-18.944 17.408s7.68 15.872 18.944 15.872h170.496v24.064c0 13.312 11.776 24.064 25.6 24.064s25.6-10.752 25.6-24.064v-24.064H665.6c0.512 0 1.536 0.512 2.048 0.512s1.536-0.512 2.048-0.512h36.864c11.264 0 20.48-4.608 20.48-15.872s-9.216-17.408-20.48-17.408z"  horiz-adv-x="1024" />

    
    <glyph glyph-name="arrow-right" unicode="&#58896;" d="M329.525 704.453l56.285 58.26 393.996-392.021-393.996-392.021-56.285 58.26 331.786 333.761z"  horiz-adv-x="1024" />

    
    <glyph glyph-name="luntanzixun" unicode="&#58899;" d="M51.2 1.706667a257.706667 30.72 0 1 1 515.413333 0 257.706667 30.72 0 1 1-515.413333 0ZM581.973333-37.546667a143.36 22.186667 0 1 1 286.72 0 143.36 22.186667 0 1 1-286.72 0ZM568.32 482.986667H201.386667c-11.946667 0-22.186667-8.533333-22.186667-18.773334 0-10.24 10.24-18.773333 22.186667-18.773333h366.933333c11.946667 0 22.186667 8.533333 22.186667 18.773333 0 10.24-10.24 18.773333-22.186667 18.773334zM935.253333 416.426667l-360.106666-10.24c-22.186667 0-40.96-18.773333-40.96-40.96v-238.933334c0-22.186667 18.773333-40.96 40.96-40.96h134.826666l3.413334-30.72 34.133333-15.36c6.826667-3.413333 18.773333-1.706667 23.893333 5.12l40.96 40.96h116.053334c22.186667 0 51.2 18.773333 51.2 40.96v238.933334c1.706667 22.186667-22.186667 51.2-44.373334 51.2zM904.533333 416.426667H530.773333c-22.186667 0-40.96-18.773333-40.96-40.96v-235.52c0-22.186667 18.773333-40.96 40.96-40.96H665.6l40.96-40.96c5.12-5.12 15.36-5.12 20.48 0l40.96 40.96h136.533333c22.186667 0 40.96 18.773333 40.96 40.96V375.466667c-1.706667 22.186667-18.773333 40.96-40.96 40.96zM675.84 708.266667l-515.413333-13.653334c-32.426667 0-58.026667-25.6-58.026667-58.026666V298.666667c0-32.426667 25.6-58.026667 58.026667-58.026667h194.56l18.773333-46.08 27.306667-13.653333c15.36-6.826667 35.84-3.413333 47.786666 8.533333l51.2 52.906667h194.56c32.426667 0 58.026667 25.6 58.026667 58.026666V636.586667c0 32.426667-44.373333 71.68-76.8 71.68zM643.413333 708.266667H109.226667C76.8 708.266667 51.2 682.666667 51.2 650.24v-337.92c0-32.426667 25.6-58.026667 58.026667-58.026667h194.56l51.2-52.906666c11.946667-11.946667 30.72-11.946667 42.666666 0l51.2 52.906666h194.56c32.426667 0 58.026667 25.6 58.026667 58.026667V650.24c0 32.426667-25.6 58.026667-58.026667 58.026667zM143.36 532.48c3.413333 20.48 23.893333 37.546667 46.08 37.546667h172.373333c20.48 0 39.253333-17.066667 39.253334-37.546667 0-20.48-17.066667-37.546667-37.546667-37.546667h-187.733333c-22.186667-1.706667-37.546667 15.36-32.426667 37.546667zM143.36 431.786667c3.413333 17.066667 18.773333 30.72 35.84 30.72h305.493333c17.066667 0 32.426667-13.653333 34.133334-30.72v-8.533334c1.706667-20.48-13.653333-37.546667-34.133334-37.546666H174.08c-20.48 0-35.84 17.066667-30.72 37.546666v8.533334zM141.653333 570.026667h180.906667c17.066667 0 30.72-13.653333 30.72-30.72s-13.653333-30.72-30.72-30.72H141.653333c-17.066667 0-30.72 13.653333-30.72 30.72s15.36 30.72 30.72 30.72zM141.653333 462.506667H443.733333c17.066667 0 30.72-13.653333 30.72-30.72S460.8 401.066667 443.733333 401.066667H141.653333c-17.066667 0-30.72 13.653333-30.72 30.72s15.36 30.72 30.72 30.72zM819.2 716.8a76.8 76.8 0 1 1 153.6 0 76.8 76.8 0 1 1-153.6 0ZM785.066667 716.8a76.8 76.8 0 1 1 153.6 0 76.8 76.8 0 1 1-153.6 0Z"  horiz-adv-x="1024" />

    
    <glyph glyph-name="biji" unicode="&#59133;" d="M512 384m-512 0a512 512 0 1 1 1024 0 512 512 0 1 1-1024 0ZM435.2 200.533333l-153.6-42.666666 42.666667 149.333333zM725.333333 490.666667l-34.133333-34.133334-106.666667 106.666667 34.133334 34.133333s17.066667 17.066667 34.133333 0l68.266667-68.266666c21.333333-21.333333 4.266667-38.4 4.266666-38.4zM682.666667 448l-238.933334-238.933333-106.666666 110.933333 238.933333 238.933333z"  horiz-adv-x="1024" />

    
    <glyph glyph-name="cuvette" unicode="&#58895;" d="M393.1 297.6c-17.7 0-20-14.4-20-32.1 0-17.7 14.3-32.1 32.1-32.1 17.7 0 32.1 14.4 32.1 32.1-0.1 17.8-26.4 32.1-44.2 32.1zM501 210.89999999999998c-7.9 0-14.3-6.4-14.3-14.3s6.4-14.3 14.3-14.3 14.3 6.4 14.3 14.3c0.1 7.9-6.4 14.3-14.3 14.3z m-60.7 310.7c-2.2-2.2-3.5-5.2-3.5-8.5 0-6.7 5.4-12.1 12.1-12.1 1.4 0 2.8 0.2 4 0.7v19.8h-12.6v0.1z m2.5-139.3c-10 0-18.1-8.1-18.1-18.1 0-10 8.1-18.1 18.1-18.1 10 0 18.1 8.1 18.1 18.1 0 1-0.1 2-0.2 3-1.8 2.9-3.2 6-4.4 9.1-3.4 3.7-8.2 6-13.5 6z m-27 89c-5.1 0-9.4-3.1-11.2-7.6v-8.9c1.8-4.4 6.1-7.6 11.2-7.6 6.7 0 12.1 5.4 12.1 12-0.1 6.7-5.5 12.1-12.1 12.1z m75.3-153.8L587.7 160H365.3c-2.6 10.2-11.7 17.7-22.7 17.7-10.9 0-20.1-7.5-22.7-17.7h-50.5l96.9 157.6 124.8-0.1zM638.8 691c0 24.2-10.1 50.6-35.2 56.6-15 3.6-12.1 23.9 2 23.9h225.9c14 0 16.6-20.4 2.8-23.7-27-6.5-35.9-32-35.9-54.6v-614.4c0-96.9-131.4-102.1-155.8-26 12.8 2 24.1 6.7 33.8 13.3 3.6-13 12.7-21.7 23.6-26.1 6.1-2.4 12.9-3.7 19.6-3.7 6.7 0 13.2 1.1 19.2 3.5 13.2 5.3 23.4 18 23.4 38.9h0.1V693.1c0 14.4 2.5 29 8.1 42.2H666c6-14 8.8-29.6 8.8-44.4v-151.3H726v-24.1h-51.3v-36.1h24.2v-24.1h-24.2v-36.1H726v-24.1h-51.3V359h24.2v-24.1h-24.2v-36.1H726v-24.1h-51.3v-36.2h24.2v-24.1h-17.5l-42.7 69.7 0.1 406.9zM386.5 603v-33.6c0-6.4 4.2-11.6 9.3-11.6h65.8c5.1 0 9.2 5.2 9.2 11.6V603H489v-207.8c0-3.4 0.9-6.7 2.6-9.4L637.5 148c3.9-6.3 5.6-24.1-8.7-24.1H228.2c-14.5 0-12.1 18.4-8.2 24.8l145.8 237c1.8 3 2.7 6.2 2.7 9.5V603.1l18-0.1z m242.3-515.1c41.9 0 60.1 46.9 38.7 80.1L525 400.3V603h6.8c10 0 18.1 8.1 18.1 18.1 0 10-8.1 18.1-18.1 18.1h-61v27.6c0 6.4-4.2 11.6-9.2 11.6h-65.8c-5.1 0-9.3-5.2-9.3-11.6v-27.6h-61c-10 0-18.1-8.1-18.1-18.1 0-10 8.1-18.1 18.1-18.1h6.8v-202.8L189.1 167.60000000000002c-19.4-31.6-4.2-79.7 39-79.7h400.7z"  horiz-adv-x="1024" />

    
    <glyph glyph-name="laoshitouxiang" unicode="&#59104;" d="M511.99977 384.00023m-511.99977 0a511.99977 511.99977 0 1 1 1023.999539 0 511.99977 511.99977 0 1 1-1023.999539 0ZM511.99977 384.00023m-511.99977 0a511.99977 511.99977 0 1 1 1023.999539 0 511.99977 511.99977 0 1 1-1023.999539 0ZM321.075056 592.281737m-86.783961 0a86.783961 86.783961 0 1 1 173.567921 0 86.783961 86.783961 0 1 1-173.567921 0ZM694.220488 592.281737m-95.436757 0a95.436757 95.436757 0 1 1 190.873514 0 95.436757 95.436757 0 1 1-190.873514 0ZM303.718263 557.568152a34.713584 34.713584 0 0 0 34.713585-34.713584v-190.924714a34.713584 34.713584 0 0 0-34.713585-34.713585 34.713584 34.713584 0 0 0-34.713584 34.713585V522.854568a34.713584 34.713584 0 0 0 34.713584 34.713584zM720.281276 557.568152a34.713584 34.713584 0 0 0 34.713584-34.713584v-190.924714a34.713584 34.713584 0 0 0-34.713584-34.713585 34.713584 34.713584 0 0 0-34.713585 34.713585V522.854568a34.713584 34.713584 0 0 0 34.713585 34.713584zM312.422259 375.347434m-78.079964 0a78.079965 78.079965 0 1 1 156.159929 0 78.079965 78.079965 0 1 1-156.159929 0ZM720.281276 375.347434m-78.079965 0a78.079965 78.079965 0 1 1 156.15993 0 78.079965 78.079965 0 1 1-156.15993 0ZM511.99977-127.999539a510.05417 510.05417 0 0 1 340.735846 129.894341 194.559912 194.559912 0 0 1-162.150327 87.039961H333.41425a194.559912 194.559912 0 0 1-162.150327-87.039961A510.05417 510.05417 0 0 1 511.99977-127.999539zM511.99977-93.285955l78.079964 112.793549h-156.159929L511.99977-93.285955zM511.99977-127.999539c5.119998 0 10.598395 0 15.871992 0.256l-15.871992 34.457584-15.871993-34.457584c5.273598-0.256 10.751995-0.256 15.871993-0.256zM431.462206 158.361932h161.075127a40.959982 40.959982 0 0 0 40.959982-40.959982v-175.97432L511.99977 9.421199l-121.497546-67.993569v175.97432a40.959982 40.959982 0 0 0 40.959982 40.959982zM433.919805 201.779512l156.211129 0 0-190.924714-156.211129 0 0 190.924714ZM433.919805 295.21947l156.211129 0 0-199.57751-156.211129 0 0 199.57751ZM416.358213 661.708905h191.283114a112.639949 112.639949 0 0 0 112.639949-112.639949v-217.139102A208.281506 208.281506 0 0 0 511.99977 123.648348a208.281506 208.281506 0 0 0-208.281507 208.281506V549.068956a112.639949 112.639949 0 0 0 112.63995 112.639949zM338.431848 679.065698m-86.783961 0a86.783961 86.783961 0 1 1 173.567922 0 86.783961 86.783961 0 1 1-173.567922 0ZM441.702201 774.502455h321.945455q-8.345596-171.878323-129.740741-173.055922-84.838362-0.8192-192.409514-0.3072a51.199977 51.199977 0 0 0-51.199977 51.199977V723.302478a51.199977 51.199977 0 0 0 51.404777 51.199977z"  horiz-adv-x="1024" />

    
    <glyph glyph-name="xunishiyanshi" unicode="&#58885;" d="M922.763636 590.610101v-413.090909c0-19.006061-10.60202-36.072727-26.50505-45.511111L538.246465-75.507071c-15.90303-9.567677-37.107071-9.567677-53.010101 0L127.353535 130.973737C111.450505 140.541414 100.848485 157.478788 100.848485 176.484848V589.575758c0 19.006061 10.60202 36.072727 26.50505 45.511111L485.365657 841.69697c15.90303 9.567677 37.107071 9.567677 53.010101 0l358.012121-205.446465c15.773737-9.567677 26.375758-26.505051 26.375757-45.640404zM867.555556 179.070707V589.187879L511.741414 794.246465 156.056566 589.187879v-410.117172l355.684848-205.058586L867.555556 179.070707z m-50.682829 29.220202M738.00404 250.828283l-151.272727 269.575757v87.014142h19.135354c10.60202 0 19.135354 8.40404 19.135353 18.618182s-8.662626 18.618182-19.135353 18.618181H413.99596c-10.60202 0-19.135354-8.40404-19.135354-18.618181s8.662626-18.618182 19.135354-18.618182H433.131313v-87.014142L281.858586 250.828283c-43.442424-70.335354-9.955556-127.870707 74.60202-127.870707h307.070707c84.428283 0 117.915152 57.535354 74.472727 127.870707m-384.646464 51.458586l118.30303 207.773737v97.228283h76.8v-97.228283l117.656566-207.773737H353.357576"  horiz-adv-x="1024" />

    
    <glyph glyph-name="xunixianshi" unicode="&#58960;" d="M753.188571 656.274286c6.4 2.011429 11.702857 4.388571 15.36 5.668571 13.165714 4.937143 25.417143 11.52 33.28-4.022857 8.777143-17.371429-19.017143-30.902857-24.502857-34.377143-13.897143-8.96-29.257143-15.908571-44.617143-22.308571-13.714286-5.668571-21.028571-1.828571-27.428571 12.434285-7.68 17.188571-14.445714 34.742857-21.942857 52.114286-4.754286 11.154286-8.594286 22.491429 2.742857 31.634286 11.154286 8.777143 21.577143 4.205714 30.537143-4.205714 5.668571 16.091429 9.325714 32.731429 17.371428 47.177142 10.057143 18.102857 21.211429 36.754286 36.205715 50.468572 29.44 27.428571 67.108571 24.32 95.085714-4.388572 29.988571-30.72 44.8-69.668571 55.771429-109.897142 10.24-38.217143 17.554286-77.348571 26.697142-117.942858h42.971429c55.222857-0.182857 95.817143-40.045714 96.731429-95.451428 0.365714-25.782857 0-51.382857 0.182857-77.165714 0-4.571429 0.365714-9.142857 0.731428-14.811429 76.8 8.228571 152.685714 13.348571 226.377143 39.497143-18.285714 13.531429-101.485714 33.097143-139.52 33.28 4.022857-5.851429 7.68-10.971429 10.971429-16.274286 6.765714-10.971429 4.388571-24.502857-5.302857-30.72-9.325714-6.034286-22.491429-3.474286-29.257143 7.314286-11.52 18.102857-22.308571 36.571429-32.731429 55.222857-5.668571 10.24-2.925714 20.114286 6.4 27.428571 16.822857 13.348571 33.645714 26.514286 50.834286 39.314286 9.874286 7.314286 23.588571 6.034286 30.171428-2.377143 6.4-8.228571 4.388571-21.577143-4.937142-29.805714-2.742857-2.56-5.668571-4.937143-9.874286-8.777143 25.6-4.754286 49.737143-8.594286 73.508571-14.08 19.565714-4.571429 38.765714-10.788571 57.782857-17.188571 7.497143-2.56 14.811429-6.948571 21.394286-11.702857 22.491429-16.274286 22.857143-39.862857 0.365714-56.137143-25.965714-18.834286-56.32-27.428571-87.04-33.097143-53.942857-9.874286-108.068571-17.554286-162.377142-25.782857-6.948571-1.097143-10.057143-3.108571-12.068572-10.057143-13.165714-44.434286-48.822857-70.948571-95.451428-71.497143-10.24-0.182857-20.662857-0.365714-30.902858 0.182857-8.228571 0.365714-11.702857-1.645714-13.165714-10.788571-6.948571-49.188571-16.822857-97.828571-34.925714-144.457143-10.422857-26.514286-22.674286-51.748571-42.971429-72.411429-31.634286-32.182857-73.508571-31.268571-103.68 2.377143-20.297143 22.674286-31.634286 50.102857-37.851428 79.177143-7.497143 35.108571-12.068571 70.765714-17.005715 106.422857-2.011429 14.262857 4.754286 21.942857 17.554286 23.222857 13.897143 1.28 20.662857-4.754286 23.222857-19.565714 6.217143-37.12 11.52-74.422857 19.748572-110.994286 3.657143-15.908571 12.068571-31.268571 21.028571-44.982857 15.725714-23.588571 34.194286-23.588571 51.931429-1.645714 19.382857 23.771429 29.44 52.114286 38.582857 80.64 18.285714 57.965714 26.697143 117.577143 30.72 178.102857 0 1.097143-0.548571 2.377143-0.548572 2.377143-99.291429 1.645714-198.217143 3.108571-296.777142 4.754286 2.56-14.08 19.017143-28.525714 37.668571-31.634286 6.765714-1.097143 13.714286-1.28 20.48-1.28 65.097143 0 130.377143 0 195.474286-0.182857 17.005714 0 25.234286-6.948571 25.234285-20.48 0-11.702857-6.765714-19.382857-18.834285-19.931429-11.52-0.548571-23.222857-0.182857-34.742857-0.365714h-164.571429c-53.028571 0-85.942857 24.32-101.668571 74.971428-0.548571 1.645714-1.097143 3.108571-0.914286 2.56-51.382857 8.045714-95.268571 13.714286-145.005714 22.857143-21.211429 3.84-48.091429 12.982857-68.388572 20.662857-9.874286 3.657143-19.2 9.691429-27.245714 16.457143-20.662857 17.371429-20.662857 42.605714 2.742857 55.588572 22.857143 12.617143 48.457143 21.577143 73.874286 27.977143 30.171429 7.68 61.44 10.971429 92.342857 16.091428 0.914286 0.182857 1.645714 0.182857 2.56 0.182857 16.274286 1.462857 28.525714-5.851429 29.622857-17.554285 1.097143-11.885714-9.874286-20.845714-25.417143-23.771429-40.045714-7.131429-79.908571-14.994286-119.588571-23.04-8.96-1.828571-17.188571-6.4-25.6-11.337143 65.645714-28.16 135.131429-33.097143 206.08-40.777143 0 25.782857-0.548571 50.102857 0.182857 74.422857 0.548571 16.091429 0.548571 32.914286 4.754286 48.274286 10.422857 38.765714 45.165714 65.828571 85.211428 66.194286 68.937143 0.914286 138.057143 0.365714 206.994286 0.182857 14.262857 0 21.394286-7.131429 21.577143-19.748571 0.182857-13.531429-7.314286-20.845714-23.405715-20.845715-63.817143-0.182857-127.817143 0-191.634285-0.182857-8.045714 0-16.64 0-24.137143-2.194286-21.76-6.4-36.205714-21.76-37.485714-44.068571-1.828571-34.011429-0.548571-68.388571-0.548572-106.24h305.188572c0.182857 1.462857 0.914286 3.474286 0.914285 5.485714 1.097143 100.571429-3.657143 200.594286-32.365714 297.874286-7.68 25.965714-18.285714 51.748571-31.268571 75.702857-20.662857 38.4-46.445714 38.034286-70.034286 1.28-12.251429-19.931429-23.588571-54.308571-27.428572-85.028571zM948.48 519.314286c1.28-26.697143 3.108571-51.931429 3.657143-76.982857 0.548571-25.417143 0.182857-50.834286 0.182857-77.714286 31.268571 1.462857 61.074286 2.925714 91.428571 4.205714 0 36.022857 1.645714 70.582857-0.548571 104.96-1.645714 25.051429-22.125714 43.154286-46.811429 45.165714-15.542857 1.462857-31.451429 0.365714-47.908571 0.365715z m-1.28-229.302857c54.125714-7.131429 82.651429 3.474286 91.611429 33.828571-29.622857-1.462857-58.88-2.742857-88.502858-4.205714-1.097143-10.422857-2.194286-19.565714-3.108571-29.622857z"  horiz-adv-x="1755" />

    
    <glyph glyph-name="guohao" unicode="&#58932;" d="M953.472 544.36352c18.37056-51.0464 28.58496-104.13568 28.58496-161.30048 0-257.27488-208.26624-465.536-465.54112-465.536-257.26976 0-465.53088 208.26624-465.53088 465.536S259.24608 848.59392 516.51584 848.59392c134.76352 0 255.23712-57.16992 340.98688-149.04832 8.17152 0 14.30016 2.04288 20.41856 8.1664 0 0 8.17152 8.1664 8.17152 24.4992C794.2144 832.26624 661.49376 893.5168 516.51584 893.5168 234.74688 893.5168 6.06208 664.832 6.06208 383.06304c0-281.77408 228.6848-510.464 510.45376-510.464 281.77408 0 510.464 228.68992 510.464 510.464 0 63.29344-12.25216 122.50624-32.67584 177.63328-10.20416 6.12864-28.58496 8.1664-40.832-16.3328zM886.58944 636.24704c0-10.69056 4.4032-21.31456 11.96544-28.8768s18.18624-11.96032 28.8768-11.96032 21.31968 4.4032 28.8768 11.96032a41.3184 41.3184 0 0 1 11.9552 28.8768 41.31328 41.31328 0 0 1-11.9552 28.8768c-7.55712 7.56224-18.18624 11.96032-28.8768 11.96032s-21.31456-4.39808-28.8768-11.96032a41.3184 41.3184 0 0 1-11.96544-28.8768zM663.64928 104.98048c-22.72256 0-63.35488 0.44032-121.90208 1.31072-45.0048 0.88064-80.83456 4.8128-107.47904 11.8016-27.09504 7.8592-51.33824 23.81312-72.74496 47.84128-9.17504 10.91584-18.13504 16.384-26.86976 16.384-16.60928 0-43.03872-30.58176-79.29344-91.7504l-35.38944 31.45728c35.38944 56.79104 66.62144 90.86976 93.71648 102.23616V422.83008H219.3152v44.56448h139.59168v-245.76c6.98368-5.24288 12.672-10.27072 17.03936-15.07328 17.03936-18.35008 34.94912-32.10752 53.73952-41.28256 20.5312-8.2944 51.54816-13.11232 93.06112-14.41792 48.05632-0.8704 93.06112-1.31072 135.00416-1.31072l87.81824 0.65536c33.19296 0.88064 55.92064 1.75104 68.15744 2.62144l-11.79648-47.84128h-138.28096zM265.1904 684.97408c44.12416-34.07872 81.47968-68.59776 112.06656-103.54688l-34.07872-34.73408c-27.96032 34.5088-64.87552 70.33856-110.75072 107.47904l32.76288 30.80192z m287.04256-492.83072l-10.48576 45.8752c32.768-2.19136 60.7232-3.28192 83.88608-3.28192 18.35008 0 27.52512 8.07936 27.52512 24.24832V539.48416H413.952v45.8752h239.2064V691.52768h48.50176v-106.16832h93.06112v-45.8752h-93.06112v-291.6352c0-37.14048-19.88608-55.7056-59.63776-55.7056h-89.78944zM485.39136 481.15712c39.75168-48.93696 70.33856-91.32032 91.7504-127.13984l-39.3216-27.53024c-23.16288 40.63744-53.30944 84.10112-90.43968 130.42176l38.01088 24.24832z"  horiz-adv-x="1026" />

    
    <glyph glyph-name="weiwancheng" unicode="&#58886;" d="M512-64C759.425-64 960 136.57500000000005 960 383.95000000000005S759.425 832 512 832 64 631.45 64 383.95000000000005s200.575-448 448-448z m0-64C229.225-128 0 101.22500000000002 0 383.95000000000005S229.225 895.95 512 895.95s512-229.175 512-512S794.775-128 512-128z m0 773.325a32 32 0 0 1-32-31.9875v-320a32 32 0 1 1 64 0v320a32 32 0 0 1-32 32z m0-448a32 32 0 0 1-32-32v-10.6625a32 32 0 1 1 64 0v10.6625a32 32 0 0 1-32 32z m0 0"  horiz-adv-x="1024" />

    
    <glyph glyph-name="kechengliebiao" unicode="&#59111;" d="M204.8 742.4a51.2 51.2 0 0 1-51.2-51.2v-128a51.2 51.2 0 0 1 51.2-51.2h128a51.2 51.2 0 0 1 51.2 51.2V691.2a51.2 51.2 0 0 1-51.2 51.2H204.8z m0 102.4h128a153.6 153.6 0 0 0 153.6-153.6v-128a153.6 153.6 0 0 0-153.6-153.6H204.8a153.6 153.6 0 0 0-153.6 153.6V691.2a153.6 153.6 0 0 0 153.6 153.6z m486.4-102.4a51.2 51.2 0 0 1-51.2-51.2v-128a51.2 51.2 0 0 1 51.2-51.2H819.2a51.2 51.2 0 0 1 51.2 51.2V691.2a51.2 51.2 0 0 1-51.2 51.2h-128z m0 102.4H819.2a153.6 153.6 0 0 0 153.6-153.6v-128a153.6 153.6 0 0 0-153.6-153.6h-128a153.6 153.6 0 0 0-153.6 153.6V691.2a153.6 153.6 0 0 0 153.6 153.6zM204.8 256a51.2 51.2 0 0 1-51.2-51.2V76.8a51.2 51.2 0 0 1 51.2-51.2h128a51.2 51.2 0 0 1 51.2 51.2v128a51.2 51.2 0 0 1-51.2 51.2H204.8z m0 102.4h128a153.6 153.6 0 0 0 153.6-153.6V76.8a153.6 153.6 0 0 0-153.6-153.6H204.8a153.6 153.6 0 0 0-153.6 153.6v128a153.6 153.6 0 0 0 153.6 153.6z m486.4-102.4a51.2 51.2 0 0 1-51.2-51.2V76.8a51.2 51.2 0 0 1 51.2-51.2H819.2a51.2 51.2 0 0 1 51.2 51.2v128a51.2 51.2 0 0 1-51.2 51.2h-128z m0 102.4H819.2a153.6 153.6 0 0 0 153.6-153.6V76.8a153.6 153.6 0 0 0-153.6-153.6h-128a153.6 153.6 0 0 0-153.6 153.6v128a153.6 153.6 0 0 0 153.6 153.6z"  horiz-adv-x="1024" />

    
    <glyph glyph-name="xuesheng" unicode="&#59082;" d="M512.1 384.8m-448.1 0a448.1 448.1 0 1 1 896.2 0 448.1 448.1 0 1 1-896.2 0ZM506.3 146.8v-129.6h250c0 52.3-131.6 129.6-250 129.6zM506.3 146.8v-129.6h-250c0.1 52.3 131.6 129.6 250 129.6zM256.4 16.9c72.5-50.5 160.7-80.1 255.7-80.1 90.1 0 173.9 26.6 244.2 72.4v8.1H256.4v-0.4zM474.8 74.6h66.9l16.6 16.7v82.6h-97v-79.7zM368.5 350.1c0-31.2-21.4-56.5-47.4-56.5-26.3 0-47.4 25.4-47.4 56.5 0 31.2 21.4 56.5 47.4 56.5 26.1-0.3 47.4-25.4 47.4-56.5zM746.1 350.1c0-31.2-21.4-56.5-47.4-56.5S651 319 651 350.1c0 31.2 21.4 56.5 47.4 56.5s47.7-25.4 47.7-56.5zM461.3 181h97v-31.1h-97zM698.4 455.6c0 79.6-58.2 138.1-188.5 138.1-130.2 0-188.5-58.2-188.5-138.1 0-79.6-13.5-289.8 188.5-289.8 202 0.1 188.5 210.2 188.5 289.8z m0 0M350.8 447.4c-1.3 32.2 18.7 55.3 58.2 73 0 0 113.1-32.2 192.4-32.2 103.9 0 76.3-122 95-123 18.7-1 39.1 139.1 17.4 219.4 0 0-61.5 76-183.5 88.8-122 13.2-222.7-54.9-227.6-158.9-4.3-91.8 3-149.3 18.4-149.3 16.5 0 31.3 50 29.7 82.2z m0 0M579.1 145.1c-7.3 2.5-14.8 1.6-20.5 0.6-0.1-0.1-0.3-0.3-0.3-0.5-0.7-2.4-1.3-4.7-2-7.1-0.4-1.3-0.7-2.7-1.1-4-3.7-13.5-8.3-24.8-14.2-34.4-6.9-11.4-14.4-19.1-23.7-24.4-1.2-0.7-3.1-1.4-5.2 0.4-1.6 1.4-3.2 2.7-4.8 4.1-2.5 2.1-5 4.2-7.4 6.4-14 12.9-23.6 25-30.3 37.9-2.5 4.9-4.5 9.9-6.6 15.2-0.8 2-1.6 4-2.4 6.1-7.2-1.8-13.2-4.4-18.4-7.8-6.5-4.3-9.6-9.3-9.7-15.7 0-1-0.3-2-0.5-3-1.1-4.3-0.5-8.5 1.6-12.6 4.1-7.8 10.5-13.6 16.2-18.2 9.6-7.8 20-15.9 31.7-22.5 3.5-2 4.4-4 3.6-8.2-0.3-1.2-0.2-2.6-0.2-3.8 0-0.5 0.2-1 0.3-1.5 0.2-1 0.5-2.2 0.2-3.4-1.3-5.3 0.8-9.9 3.3-14.5 1.8-3.3 3.8-4.7 7-4.9 5.1-0.3 8.4-3.1 8.9-7.6 2-17.9 1.2-35.8-2.4-53-2.1-10.4-5.3-21.1-14-29.3-0.8-0.7-1.3-1.3-1.8-1.9 8.5-0.5 17.1-0.8 25.7-0.8 1.8 0 3.7 0 5.5 0.1 0.2 0.5 0.3 1 0.5 1.5 1.1 3.3 2 6.7 3 10 0.8 2.7 1.5 5.5 2.4 8.2 0.6 1.9 1.4 3.7 2.1 5.5 0.3 0.8 0.7 1.6 1 2.4l0.4 1 3.1-0.3 0.2-1c0.1-0.4 0.2-0.7 0.3-1.1 0.3-0.9 0.6-1.9 0.6-2.9v-5.6c0-5.7 0-11.5-0.5-17.3 15.3 0.6 30.4 2 45.2 4.1 1.2 14.3-0.4 28.3-4.8 41.7-5.1 15.7-13.6 30.5-25.8 45.4-3.4 4.1-3.3 5 0.8 8.4 2.2 1.9 3.5 3.9 3.8 6.3 1.4 9.4 0 16.1-4.8 21.5-1 1.1-1.4 2.2-1.2 3.3 0.2 1.1 1 2.1 2.4 2.9 1.9 1.1 3.7 2.2 5.6 3.3 4.7 2.7 9.5 5.5 13.9 8.7 6.3 4.5 12 9.8 16.2 13.9 3.6 3.5 6 8.3 7.6 15.5 1.3 6 2.4 12.5 1.2 19.1-1.3 7-5.3 11.6-11.7 13.8z"  horiz-adv-x="1024" />

    
    <glyph glyph-name="saoyisao" unicode="&#58924;" d="M64 512a32 32 0 0 1 32 32V761a39 39 0 0 0 39 39h217a32 32 0 0 1 0 64H135A103.08 103.08 0 0 1 32 761v-217a32 32 0 0 1 32-32zM352-32H135a39 39 0 0 0-39 39V224a32 32 0 0 1-64 0v-217a103.08 103.08 0 0 1 103-103h217a32 32 0 0 1 0 64zM960 256a32 32 0 0 1-32-32v-217a39 39 0 0 0-39-39H672a32 32 0 0 1 0-64h217a103.08 103.08 0 0 1 103 103V224a32 32 0 0 1-32 32zM889 864H672a32 32 0 0 1 0-64h217a39 39 0 0 0 39-39v-217a32 32 0 0 1 64 0V761A103.08 103.08 0 0 1 889 864zM96 416l832 0 0-64-832 0 0 64Z"  horiz-adv-x="1024" />

    
    </font>
</defs>
</svg>
